<?xml version="1.0" encoding="UTF-8"?>
<svg width="1000px" height="1000px" viewBox="0 0 1000 1000" version="1.1" xmlns="http://www.w3.org/2000/svg" xmlns:xlink="http://www.w3.org/1999/xlink">
    <title>token-logo-深色</title>
    <defs>
        <path d="M500,1000 C776.142375,1000 1000,776.142375 1000,500 C1000,429.154034 985.265479,361.749499 958.693745,300.683706 C881.694562,123.72814 705.296409,0 500,0 C223.857625,0 0,223.857625 0,500 C0,776.142375 223.857625,1000 500,1000 Z" id="path-1"></path>
        <filter x="-51.3%" y="-132.3%" width="202.6%" height="364.6%" filterUnits="objectBoundingBox" id="filter-3">
            <feGaussianBlur stdDeviation="106.666667" in="SourceGraphic"></feGaussianBlur>
        </filter>
        <filter x="-51.3%" y="-132.3%" width="202.6%" height="364.6%" filterUnits="objectBoundingBox" id="filter-4">
            <feGaussianBlur stdDeviation="106.666667" in="SourceGraphic"></feGaussianBlur>
        </filter>
        <filter x="-51.3%" y="-132.3%" width="202.6%" height="364.6%" filterUnits="objectBoundingBox" id="filter-5">
            <feGaussianBlur stdDeviation="106.666667" in="SourceGraphic"></feGaussianBlur>
        </filter>
        <filter x="-51.3%" y="-132.3%" width="202.6%" height="364.6%" filterUnits="objectBoundingBox" id="filter-6">
            <feGaussianBlur stdDeviation="106.666667" in="SourceGraphic"></feGaussianBlur>
        </filter>
        <linearGradient x1="28.7133444%" y1="37.5429841%" x2="64.6693652%" y2="87.3667797%" id="linearGradient-7">
            <stop stop-color="#BE692A" offset="0%"></stop>
            <stop stop-color="#EECC7E" offset="100%"></stop>
        </linearGradient>
        <path d="M204.444444,0 L389.469149,333.193542 C401.924899,359.789069 408.888889,389.504053 408.888889,420.856431 C408.888889,534.522285 317.355993,626.666667 204.444444,626.666667 C91.5328956,626.666667 0,534.522285 0,420.856431 C0,388.5551 7.39193242,357.991781 20.5658001,330.787227 L204.444444,0 Z M204.432178,55.2309071 L44.3521778,343.205814 L43.9023062,344.149773 C32.9402275,367.363419 27.0580847,392.768306 26.8020695,419.062296 L26.7933385,420.856431 C26.7933385,519.661029 106.340542,599.739648 204.444444,599.739648 C302.548347,599.739648 382.09555,519.661029 382.09555,420.856431 C382.09555,394.71666 376.540347,369.421377 365.956289,346.238139 L365.587556,345.443322 L204.432178,55.2309071 Z" id="path-8"></path>
        <linearGradient x1="50%" y1="0%" x2="50%" y2="100%" id="linearGradient-9">
            <stop stop-color="#EECC7E" offset="0%"></stop>
            <stop stop-color="#85633F" offset="100%"></stop>
        </linearGradient>
        <linearGradient x1="50%" y1="0%" x2="50%" y2="100%" id="linearGradient-10">
            <stop stop-color="#BE692A" offset="0%"></stop>
            <stop stop-color="#EECC7E" offset="100%"></stop>
        </linearGradient>
        <path d="M340.667763,436.890586 L340.664763,436.911586 L340.661763,436.936586 L340.496993,438.165988 L340.496993,438.165988 C340.445864,438.533352 340.39325,438.900603 340.339206,439.267384 C340.285842,439.629549 340.231133,439.990936 340.175037,440.351861 C340.125659,440.66957 340.075164,440.987179 340.023597,441.304425 C339.962247,441.681861 339.899404,442.05863 339.835053,442.434879 C339.780258,442.755249 339.72438,443.075176 339.667413,443.394721 C339.601916,443.762114 339.534931,444.12925 339.46651,444.495876 C339.410285,444.797149 339.353174,445.097634 339.2951,445.397773 C339.219107,445.790525 339.141383,446.18308 339.062012,446.575033 C338.998853,446.886919 338.934738,447.198015 338.869587,447.508726 C338.80239,447.829193 338.734056,448.149412 338.664624,448.469217 C338.586856,448.827413 338.507718,449.185049 338.427208,449.54216 C338.367445,449.807246 338.306984,450.071789 338.24577,450.336041 C338.148058,450.757849 338.048503,451.178605 337.947044,451.59861 C337.860595,451.956483 337.772675,452.314166 337.683375,452.671296 C337.607621,452.974255 337.530876,453.276805 337.453143,453.578954 C337.335374,454.03672 337.2154,454.493323 337.093171,454.948994 C337.037144,455.157862 336.980651,455.366508 336.923685,455.574957 C336.608569,456.728035 336.278947,457.875247 335.935075,459.016218 C335.83524,459.347469 335.734264,459.678 335.632094,460.008001 C335.475431,460.514003 335.316015,461.018582 335.153812,461.521896 C335.055134,461.828091 334.955393,462.133912 334.854624,462.43926 C334.744531,462.772861 334.633237,463.105816 334.520723,463.438201 C334.395525,463.808053 334.268808,464.177219 334.140586,464.545673 C334.043828,464.823715 333.946094,465.101685 333.847505,465.379245 C333.726085,465.721073 333.603566,466.061734 333.479758,466.401769 C333.367881,466.70904 333.254849,467.016073 333.140769,467.322591 C333.036155,467.603672 332.93066,467.884315 332.824286,468.164521 C332.677873,468.550198 332.529723,468.935229 332.379914,469.319422 C332.288918,469.552784 332.197482,469.785404 332.105439,470.017713 C331.950826,470.407946 331.794309,470.797768 331.636084,471.186704 C331.527043,471.454736 331.417376,471.721898 331.306904,471.988637 C331.16004,472.343246 331.01162,472.697418 330.86178,473.050835 C330.733007,473.354566 330.603172,473.657766 330.472294,473.960403 C330.337693,474.271648 330.202026,474.582211 330.06526,474.892173 C329.930484,475.197625 329.794664,475.502442 329.657783,475.806672 C329.508421,476.138643 329.357663,476.4702 329.205645,476.801051 C329.081921,477.07032 328.95756,477.338698 328.83237,477.606606 C328.669627,477.95488 328.505242,478.302867 328.339458,478.650051 C328.209801,478.921576 328.079473,479.192232 327.948295,479.462395 C327.778622,479.81184 327.607457,480.160605 327.434877,480.508535 C327.309064,480.762182 327.182457,481.01547 327.055101,481.268311 C326.882001,481.611967 326.707538,481.954756 326.531699,482.296712 C326.392675,482.567076 326.252768,482.836962 326.112004,483.106323 C325.944071,483.427673 325.775004,483.748118 325.604724,484.06781 C325.454531,484.349792 325.303345,484.631282 325.151219,484.912182 C324.967677,485.251092 324.782654,485.589351 324.59627,485.926743 C324.465736,486.163034 324.334596,486.398789 324.202792,486.634116 C324.005283,486.986753 323.806325,487.338356 323.605884,487.68899 C323.463597,487.937896 323.320426,488.186549 323.176509,488.434711 C323.000439,488.738313 322.823422,489.040894 322.645297,489.342734 C322.48559,489.613363 322.324907,489.88354 322.163335,490.153118 C322.022847,490.387516 321.88188,490.621145 321.740246,490.854319 C321.524604,491.209331 321.30767,491.562877 321.089204,491.915362 C320.904626,492.213169 320.719132,492.509933 320.532553,492.805935 C320.363333,493.074398 320.193067,493.342472 320.021909,493.609914 C319.830346,493.90924 319.637859,494.207477 319.444265,494.504918 C319.263207,494.7831 319.080994,495.060865 318.897815,495.337928 C317.795101,497.005799 316.65755,498.647948 315.486053,500.263562 C315.342673,500.4613 315.198598,500.658892 315.054016,500.856085 C314.794759,501.209679 314.533841,501.562024 314.271301,501.913069 C314.173549,502.043773 314.075928,502.173824 313.978085,502.303696 C313.684874,502.692889 313.389561,503.080604 313.092262,503.466692 C312.905541,503.709176 312.718348,503.95062 312.530377,504.19142 C312.294978,504.49298 312.058347,504.793546 311.820505,505.093094 C311.657728,505.298105 311.494205,505.502861 311.330116,505.707136 C311.069261,506.031878 310.806959,506.355426 310.543236,506.677752 C310.368793,506.890956 310.194,507.103298 310.01859,507.315104 C309.785569,507.596476 309.551272,507.877124 309.315891,508.156818 C309.102227,508.410705 308.887821,508.66363 308.672527,508.915764 C308.447651,509.17912 308.22187,509.441542 307.995126,509.703097 C307.777205,509.954476 307.558402,510.205046 307.338715,510.454811 C307.113912,510.710392 306.888373,510.964916 306.661916,511.218593 C306.444579,511.462056 306.225946,511.705236 306.006468,511.947627 C305.779531,512.198255 305.551948,512.44776 305.323469,512.696418 C305.111144,512.927496 304.897988,513.157904 304.684063,513.387577 C304.420549,513.670487 304.155965,513.952179 303.89022,514.232748 C303.698236,514.435443 303.505371,514.63784 303.311901,514.839646 C303.054551,515.108084 302.796431,515.375169 302.537252,515.641204 C302.318686,515.865554 302.099041,516.089486 301.878645,516.312666 C301.643374,516.550906 301.407604,516.787931 301.170985,517.024096 C300.923556,517.271052 300.675033,517.517229 300.425588,517.762458 C300.197232,517.986954 299.968094,518.210662 299.738187,518.433572 C299.496388,518.66801 299.25381,518.901498 299.010385,519.134096 C298.762625,519.370838 298.513853,519.606788 298.264209,519.841811 C298.023406,520.068512 297.781806,520.294337 297.539399,520.519295 C297.302276,520.739349 297.06459,520.958383 296.826138,521.176585 C296.569127,521.411771 296.310788,521.646386 296.051563,521.880024 C295.815867,522.092452 295.579987,522.303586 295.343381,522.513913 C295.08111,522.747055 294.817633,522.979481 294.553268,523.210906 C294.336658,523.400527 294.119442,523.589484 293.901634,523.777766 C293.607132,524.032345 293.311608,524.285636 293.01501,524.537686 C292.762807,524.752009 292.509712,524.96553 292.255844,525.178147 C292.015604,525.379351 291.774725,525.579701 291.533157,525.779239 C291.262592,526.00273 290.991135,526.225224 290.71882,526.446692 C290.456977,526.659643 290.194567,526.871464 289.93137,527.082334 C289.69167,527.27438 289.45091,527.465959 289.209499,527.656741 C288.935729,527.873097 288.661084,528.088458 288.385608,528.30279 C287.323215,529.129366 286.249011,529.94022 285.162786,530.735439 C285.12607,530.762319 285.089507,530.789058 285.052931,530.81578 C284.555494,531.179199 284.055222,531.53957 283.552463,531.896629 L283.008082,532.281269 L283.008082,532.281269 C282.628223,532.548288 282.247114,532.813318 281.864616,533.076453 C281.680479,533.203127 281.496306,533.329167 281.311814,533.454767 C280.967607,533.6891 280.622171,533.921983 280.275631,534.153325 C280.032076,534.315918 279.787475,534.478081 279.54233,534.639477 C279.200699,534.864394 278.858393,535.087575 278.515043,535.30926 C278.299195,535.448624 278.082548,535.587643 277.865489,535.726066 C277.536291,535.936002 277.20639,536.144414 276.875551,536.351451 C276.60984,536.517731 276.343364,536.683222 276.076287,536.84782 C275.759615,537.042983 275.442053,537.236918 275.123651,537.429591 L274.380873,537.875864 L274.380873,537.875864 C274.056654,538.06927 273.731133,538.261632 273.40476,538.452679 C273.130026,538.613498 272.854827,538.773305 272.579028,538.932177 C272.289823,539.098772 272.000016,539.264306 271.709556,539.428807 C271.404627,539.601503 271.09898,539.773059 270.792619,539.943472 C270.503314,540.104397 270.212938,540.26454 269.921928,540.423655 C269.631073,540.582683 269.340118,540.740398 269.048536,540.897085 C268.732727,541.066792 268.41601,541.235384 268.098562,541.402763 C267.853798,541.531819 267.608369,541.660274 267.362507,541.788004 C266.992747,541.980101 266.622098,542.170513 266.250481,542.359276 C266.000847,542.486077 265.750765,542.61214 265.500249,542.737456 C265.157531,542.908894 264.814074,543.078898 264.469813,543.247497 C264.208693,543.375379 263.94692,543.502544 263.684686,543.628897 C263.323417,543.802967 262.96126,543.975502 262.598239,544.146486 C262.349764,544.263518 262.100893,544.379819 261.851619,544.495391 C261.507705,544.65484 261.163186,544.812828 260.817908,544.969422 C260.532833,545.098714 260.246877,545.227217 259.960407,545.354763 C259.647837,545.493927 259.33511,545.631755 259.021776,545.768441 C258.711715,545.903702 258.400691,546.038003 258.089078,546.171179 C257.790014,546.298991 257.490626,546.425675 257.1907,546.55132 C256.863005,546.6886 256.534306,546.824787 256.204969,546.959725 C255.902372,547.083706 255.599805,547.206404 255.296707,547.328047 C254.972828,547.458032 254.647776,547.587034 254.322121,547.714822 C254.057089,547.818819 253.792089,547.921846 253.526694,548.024069 C253.150904,548.168813 252.773977,548.312073 252.396264,548.453708 C252.239836,548.512365 252.083562,548.570636 251.927154,548.628629 C251.464742,548.800083 251.000975,548.969172 250.536054,549.135811 C249.968958,549.339075 249.399501,549.538916 248.82835,549.735076 C248.530019,549.837536 248.231608,549.938864 247.932739,550.039186 C247.513847,550.179797 247.093716,550.318544 246.672697,550.455301 C246.448403,550.528157 246.224188,550.600342 245.999724,550.671962 C245.561108,550.811912 245.121368,550.949759 244.680686,551.085435 C244.455215,551.154854 244.229224,551.223786 244.002988,551.292147 C243.582211,551.419292 243.160849,551.544383 242.738651,551.66749 C242.443875,551.753443 242.14853,551.838474 241.85278,551.922533 C241.489793,552.025703 241.126178,552.127413 240.761961,552.227653 C240.49141,552.302113 240.220704,552.375713 239.949668,552.448501 C239.548224,552.55631 239.145923,552.662369 238.742908,552.766634 C238.447062,552.843174 238.150575,552.91881 237.853705,552.993475 C237.500042,553.082422 237.146117,553.169922 236.791655,553.256038 C236.432118,553.343387 236.071975,553.429326 235.711286,553.513834 C235.412158,553.58392 235.112379,553.653084 234.812227,553.72126 C234.456945,553.801957 234.101469,553.881196 233.745479,553.959046 C233.400356,554.03452 233.054534,554.108734 232.708233,554.181635 C232.409435,554.244536 232.110223,554.306472 231.810657,554.367427 C231.424722,554.445955 231.038574,554.522782 230.651849,554.597976 C230.353859,554.655917 230.054907,554.713006 229.755613,554.769118 C229.369925,554.841426 228.984227,554.912012 228.597971,554.980973 C228.292788,555.035461 227.986796,555.089014 227.680457,555.141546 C227.322135,555.202991 226.963794,555.262965 226.604987,555.321541 C226.265567,555.376952 225.925211,555.431192 225.584442,555.484172 C225.205987,555.54301 224.827445,555.60023 224.448401,555.655892 C224.153212,555.699241 223.857492,555.741677 223.56147,555.783163 C223.188598,555.83542 222.815263,555.886167 222.441455,555.935402 C222.094322,555.981124 221.746528,556.025574 221.39833,556.068711 C221.038842,556.113246 220.679577,556.156307 220.319889,556.197969 C220.007238,556.234185 219.693707,556.269405 219.37986,556.303561 C218.984808,556.346554 218.589594,556.387827 218.193887,556.427409 C217.873365,556.459471 217.552192,556.490455 217.230698,556.520324 C216.882599,556.552664 216.534458,556.583668 216.185945,556.613362 C215.817225,556.644779 215.447708,556.67476 215.077781,556.703265 C214.753296,556.728269 214.428814,556.752115 214.104022,556.774825 C213.732418,556.800808 213.360166,556.825319 212.987512,556.848334 C212.655502,556.868839 212.323443,556.888142 211.99107,556.906255 C211.606106,556.927236 211.220274,556.946642 210.834026,556.964443 C210.492406,556.980185 210.150927,556.994654 209.809127,557.007865 C209.452669,557.021645 209.095341,557.034074 208.737669,557.045126 C208.152581,557.063203 207.567213,557.077585 206.980949,557.088271 C206.863696,557.090408 206.746199,557.092401 206.628667,557.094245 C205.901879,557.105648 205.173825,557.11137 204.444444,557.11137 L202.283763,557.093586 L202.332763,557.094586 L203.360506,557.107155 L203.360506,557.107155 L204.444444,557.11137 L203.321087,557.106843 L203.321087,557.106843 L202.332763,557.094586 L202.278557,557.094532 L202.278557,557.094532 L202.283763,557.093586 L202.199867,557.093285 L202.199867,557.093285 C201.516448,557.082268 200.833581,557.066208 200.151963,557.045149 C200.119013,557.044131 200.086405,557.043112 200.053799,557.042081 L199.739174,557.03178 C198.413697,556.986873 197.092978,556.923064 195.777278,556.840614 C195.713308,556.836605 195.649279,556.832548 195.585262,556.828446 C194.954003,556.788003 194.323906,556.743267 193.694995,556.694269 L193.383655,556.669656 L193.383655,556.669656 C192.744126,556.61837 192.105549,556.562648 191.468237,556.502544 C191.412099,556.497249 191.355776,556.491903 191.299463,556.486521 C190.625867,556.422154 189.953906,556.352914 189.283396,556.278818 C189.2419,556.274232 189.200881,556.26968 189.159868,556.26511 C188.500833,556.191677 187.842796,556.113501 187.186199,556.03066 C187.132394,556.023871 187.078747,556.01707 187.02511,556.010238 C186.388191,555.929111 185.75248,555.843573 185.11816,555.753674 C185.026595,555.740697 184.934945,555.727613 184.843324,555.714437 C184.202799,555.622328 183.563893,555.525802 182.926442,555.424863 C182.86985,555.415902 182.813483,555.40694 182.757126,555.397943 C180.692537,555.068359 178.643073,554.692439 176.610007,554.271304 C176.580102,554.265109 176.549752,554.258812 176.519407,554.252504 C175.907094,554.125231 175.29672,553.993955 174.687862,553.858613 C174.582287,553.835145 174.476646,553.81153 174.371051,553.787792 C173.756034,553.649537 173.142632,553.507145 172.530817,553.360634 C172.479762,553.348408 172.428778,553.336167 172.377805,553.323898 C171.725105,553.166796 171.074182,553.004997 170.425106,552.838545 C170.401007,552.832365 170.376658,552.826113 170.352312,552.819856 C169.702919,552.652938 169.055609,552.481426 168.410185,552.305297 C168.379299,552.296868 168.348635,552.288489 168.317976,552.280099 C166.993607,551.917693 165.676993,551.535784 164.368658,551.13475 C164.338859,551.125616 164.308854,551.116408 164.278854,551.107189 C163.685394,550.92483 163.093853,550.738603 162.504046,550.548474 C162.403495,550.516061 162.302889,550.4835 162.202333,550.450825 C161.596109,550.253836 160.992236,550.052894 160.390233,549.847866 C160.354848,549.835814 160.319153,549.823641 160.283465,549.811453 C159.653189,549.59621 159.025201,549.37657 158.399304,549.152491 C158.374006,549.143434 158.348972,549.134463 158.323941,549.125485 C157.707825,548.9045 157.093464,548.67911 156.481169,548.44945 L156.367082,548.406599 L156.367082,548.406599 C155.11505,547.935707 153.871465,547.44687 152.636842,546.940474 C152.563333,546.910324 152.489286,546.879877 152.415271,546.849366 C151.876737,546.627369 151.340288,546.402188 150.805574,546.173695 C150.704313,546.130425 150.602673,546.086846 150.501097,546.043148 C148.67505,545.257574 146.869731,544.433516 145.085754,543.571825 C145.021899,543.540983 144.957594,543.50986 144.893317,543.478689 C143.723982,542.911614 142.564205,542.328544 141.41391,541.729591 C141.320314,541.680856 141.226949,541.632104 141.133647,541.583248 C140.620444,541.314514 140.109072,541.042581 139.599623,540.767506 C139.524567,540.726981 139.449279,540.686238 139.374034,540.645427 C138.224439,540.021918 137.085011,539.382595 135.955705,538.72757 C135.89523,538.692493 135.83487,538.657422 135.774539,538.622305 C134.646406,537.965654 133.528353,537.293285 132.420731,536.605528 C132.370644,536.574428 132.319977,536.542921 132.269331,536.511382 C131.721521,536.17024 131.176757,535.825643 130.634583,535.477321 C130.611795,535.462681 130.588772,535.44788 130.565754,535.433073 C130.03189,535.089639 129.500743,534.742726 128.972142,534.392237 C128.917597,534.356071 128.862944,534.319777 128.808318,534.283444 C128.74257,534.239715 128.676993,534.196017 128.611456,534.152265 C93.394916,510.641405 69.568671,471.224692 67.2447631,426.082063 C79.4894135,432.851224 93.2298241,437.215497 107.839781,438.545571 C108.905019,433.298701 110.028888,428.104896 111.190971,422.948445 C89.9398699,409.576096 76.1814595,379.074396 80.2753107,353.498409 L80.2753107,353.498409 L80.4555196,352.552115 L80.5007893,352.542435 C99.4235133,363.211412 112.896931,387.419733 114.09514,410.621831 C117.396758,397.254838 121.103301,384.231597 125.169907,371.561152 C105.067995,357.560915 93.1844669,327.6137 98.3734418,302.950561 L98.3734418,302.950561 L98.6085496,302.04016 L98.6538193,302.03048 C116.722926,312.92962 128.87693,336.512312 129.391692,358.953339 C133.574181,346.831351 138.160964,335.052703 143.052502,323.591593 C126.696164,305.064132 122.42723,272.723821 133.660486,249.921298 L133.660486,249.921298 L134.106191,249.109311 C147.654868,262.886391 153.758819,285.708539 150.834643,306.256903 C153.92718,299.766359 157.094616,293.403793 160.42686,287.149432 C159.435044,256.831653 179.45411,223.694271 206.164133,212.105835 L206.164133,212.105835 L206.254696,212.086586 L206.359873,213.258747 C208.58925,242.689934 190.351796,275.495081 164.985321,288.945606 C161.519846,295.467715 158.219068,302.097504 154.993189,308.855272 C154.530692,309.814295 154.078344,310.818781 153.615736,311.77728 C168.439266,295.851282 192.021211,286.317571 212.185655,289.602398 L212.185655,289.602398 L212.276715,289.582926 L211.794848,290.450278 C200.017463,312.700652 171.803228,327.954767 147.432351,325.664671 C142.257448,337.807789 137.442089,350.303815 133.041283,363.189167 C149.065914,346.433101 175.599051,337.605884 196.847245,343.095907 L196.847245,343.095907 L196.937785,343.076547 L196.40102,343.908005 C182.76714,364.787467 153.64519,377.320774 129.73501,373.164827 C125.414447,386.653889 121.498808,400.486703 118.043402,414.698528 C133.187681,396.697346 159.710467,386.248449 181.566485,390.795458 L181.566485,390.795458 L181.657545,390.775987 L181.13052,391.653543 C168.487867,413.18063 139.938078,427.073133 115.831419,424.010406 C114.706228,428.917847 113.631577,433.87179 112.609957,438.868325 C114.1817,438.940671 115.762311,438.97645 117.351223,438.97645 C138.751656,438.97645 158.646247,432.486107 175.198598,421.35409 C175.210503,421.34343 175.222878,421.333287 175.235254,421.323147 C178.240351,419.306385 181.132149,417.132823 183.902938,414.817585 C204.425636,400.710295 229.238383,392.463398 255.964514,392.463398 C288.297244,392.463398 317.829609,404.533282 340.358038,424.441397 C340.793708,424.896112 341.227887,425.351259 341.659833,425.808563 C341.496192,429.108864 341.217649,432.378695 340.82815,435.614085 L340.813763,435.722586 L340.786763,435.938586 L340.802763,435.815586 L340.762738,436.148725 L340.705763,436.589586 L340.703673,436.617379 L340.703673,436.617379 L340.687763,436.731586 L340.701763,436.616586 L340.678763,436.800586 L340.667763,436.890586 Z" id="path-11"></path>
        <linearGradient x1="50%" y1="0%" x2="50%" y2="100%" id="linearGradient-12">
            <stop stop-color="#EECC7E" offset="0%"></stop>
            <stop stop-color="#85633F" offset="100%"></stop>
        </linearGradient>
        <linearGradient x1="50%" y1="0%" x2="50%" y2="100%" id="linearGradient-13">
            <stop stop-color="#BE692A" offset="0%"></stop>
            <stop stop-color="#EECC7E" offset="100%"></stop>
        </linearGradient>
        <path d="M224.444444,515.555556 C261.334008,515.555556 295.694154,504.725835 324.519024,486.072256 L324.59627,485.926743 C324.465736,486.163034 324.334596,486.398789 324.202792,486.634116 C324.005283,486.986753 323.806325,487.338356 323.605884,487.68899 C323.463597,487.937896 323.320426,488.186549 323.176509,488.434711 C323.000439,488.738313 322.823422,489.040894 322.645297,489.342734 C322.48559,489.613363 322.324907,489.88354 322.163335,490.153118 C322.022847,490.387516 321.88188,490.621145 321.740246,490.854319 C321.524604,491.209331 321.30767,491.562877 321.089204,491.915362 C320.904626,492.213169 320.719132,492.509933 320.532553,492.805935 C320.363333,493.074398 320.193067,493.342472 320.021909,493.609914 C319.830346,493.90924 319.637859,494.207477 319.444265,494.504918 C319.263207,494.7831 319.080994,495.060865 318.897815,495.337928 C317.795101,497.005799 316.65755,498.647948 315.486053,500.263562 C315.342673,500.4613 315.198598,500.658892 315.054016,500.856085 C314.794759,501.209679 314.533841,501.562024 314.271301,501.913069 C314.173549,502.043773 314.075928,502.173824 313.978085,502.303696 C313.684874,502.692889 313.389561,503.080604 313.092262,503.466692 C312.905541,503.709176 312.718348,503.95062 312.530377,504.19142 C312.294978,504.49298 312.058347,504.793546 311.820505,505.093094 C311.657728,505.298105 311.494205,505.502861 311.330116,505.707136 C311.069261,506.031878 310.806959,506.355426 310.543236,506.677752 C310.368793,506.890956 310.194,507.103298 310.01859,507.315104 C309.785569,507.596476 309.551272,507.877124 309.315891,508.156818 C309.102227,508.410705 308.887821,508.66363 308.672527,508.915764 C308.447651,509.17912 308.22187,509.441542 307.995126,509.703097 C307.777205,509.954476 307.558402,510.205046 307.338715,510.454811 C307.113912,510.710392 306.888373,510.964916 306.661916,511.218593 C306.444579,511.462056 306.225946,511.705236 306.006468,511.947627 C305.779531,512.198255 305.551948,512.44776 305.323469,512.696418 C305.111144,512.927496 304.897988,513.157904 304.684063,513.387577 C304.420549,513.670487 304.155965,513.952179 303.89022,514.232748 C303.698236,514.435443 303.505371,514.63784 303.311901,514.839646 C303.054551,515.108084 302.796431,515.375169 302.537252,515.641204 C302.318686,515.865554 302.099041,516.089486 301.878645,516.312666 C301.643374,516.550906 301.407604,516.787931 301.170985,517.024096 C300.923556,517.271052 300.675033,517.517229 300.425588,517.762458 C300.197232,517.986954 299.968094,518.210662 299.738187,518.433572 C299.496388,518.66801 299.25381,518.901498 299.010385,519.134096 C298.762625,519.370838 298.513853,519.606788 298.264209,519.841811 C298.023406,520.068512 297.781806,520.294337 297.539399,520.519295 C297.302276,520.739349 297.06459,520.958383 296.826138,521.176585 C296.569127,521.411771 296.310788,521.646386 296.051563,521.880024 C295.815867,522.092452 295.579987,522.303586 295.343381,522.513913 C295.08111,522.747055 294.817633,522.979481 294.553268,523.210906 C294.336658,523.400527 294.119442,523.589484 293.901634,523.777766 C293.607132,524.032345 293.311608,524.285636 293.01501,524.537686 C292.762807,524.752009 292.509712,524.96553 292.255844,525.178147 C292.015604,525.379351 291.774725,525.579701 291.533157,525.779239 C291.262592,526.00273 290.991135,526.225224 290.71882,526.446692 C290.456977,526.659643 290.194567,526.871464 289.93137,527.082334 C289.69167,527.27438 289.45091,527.465959 289.209499,527.656741 C288.935729,527.873097 288.661084,528.088458 288.385608,528.30279 C287.323215,529.129366 286.249011,529.94022 285.162786,530.735439 L285.052931,530.81578 L285.052931,530.81578 C284.555494,531.179199 284.055222,531.53957 283.552463,531.896629 L283.008082,532.281269 C282.628223,532.548288 282.247114,532.813318 281.864616,533.076453 C281.680479,533.203127 281.496306,533.329167 281.311814,533.454767 C280.967607,533.6891 280.622171,533.921983 280.275631,534.153325 C280.032076,534.315918 279.787475,534.478081 279.54233,534.639477 C279.200699,534.864394 278.858393,535.087575 278.515043,535.30926 C278.299195,535.448624 278.082548,535.587643 277.865489,535.726066 C277.536291,535.936002 277.20639,536.144414 276.875551,536.351451 C276.60984,536.517731 276.343364,536.683222 276.076287,536.84782 C275.759615,537.042983 275.442053,537.236918 275.123651,537.429591 L274.380873,537.875864 C274.056654,538.06927 273.731133,538.261632 273.40476,538.452679 C273.130026,538.613498 272.854827,538.773305 272.579028,538.932177 C272.289823,539.098772 272.000016,539.264306 271.709556,539.428807 C271.404627,539.601503 271.09898,539.773059 270.792619,539.943472 C270.503314,540.104397 270.212938,540.26454 269.921928,540.423655 C269.631073,540.582683 269.340118,540.740398 269.048536,540.897085 C268.732727,541.066792 268.41601,541.235384 268.098562,541.402763 C267.853798,541.531819 267.608369,541.660274 267.362507,541.788004 C266.992747,541.980101 266.622098,542.170513 266.250481,542.359276 C266.000847,542.486077 265.750765,542.61214 265.500249,542.737456 C265.157531,542.908894 264.814074,543.078898 264.469813,543.247497 C264.208693,543.375379 263.94692,543.502544 263.684686,543.628897 C263.323417,543.802967 262.96126,543.975502 262.598239,544.146486 C262.349764,544.263518 262.100893,544.379819 261.851619,544.495391 C261.507705,544.65484 261.163186,544.812828 260.817908,544.969422 C260.532833,545.098714 260.246877,545.227217 259.960407,545.354763 C259.647837,545.493927 259.33511,545.631755 259.021776,545.768441 C258.711715,545.903702 258.400691,546.038003 258.089078,546.171179 C257.790014,546.298991 257.490626,546.425675 257.1907,546.55132 C256.863005,546.6886 256.534306,546.824787 256.204969,546.959725 C255.902372,547.083706 255.599805,547.206404 255.296707,547.328047 C254.972828,547.458032 254.647776,547.587034 254.322121,547.714822 C254.057089,547.818819 253.792089,547.921846 253.526694,548.024069 C253.150904,548.168813 252.773977,548.312073 252.396264,548.453708 C252.239836,548.512365 252.083562,548.570636 251.927154,548.628629 C251.464742,548.800083 251.000975,548.969172 250.536054,549.135811 C249.968958,549.339075 249.399501,549.538916 248.82835,549.735076 C248.530019,549.837536 248.231608,549.938864 247.932739,550.039186 C247.513847,550.179797 247.093716,550.318544 246.672697,550.455301 C246.448403,550.528157 246.224188,550.600342 245.999724,550.671962 C245.561108,550.811912 245.121368,550.949759 244.680686,551.085435 L244.002988,551.292147 L244.002988,551.292147 C243.582211,551.419292 243.160849,551.544383 242.738651,551.66749 C242.443875,551.753443 242.14853,551.838474 241.85278,551.922533 C241.489793,552.025703 241.126178,552.127413 240.761961,552.227653 C240.49141,552.302113 240.220704,552.375713 239.949668,552.448501 C239.548224,552.55631 239.145923,552.662369 238.742908,552.766634 C238.447062,552.843174 238.150575,552.91881 237.853705,552.993475 C237.500042,553.082422 237.146117,553.169922 236.791655,553.256038 C236.432118,553.343387 236.071975,553.429326 235.711286,553.513834 C235.412158,553.58392 235.112379,553.653084 234.812227,553.72126 C234.456945,553.801957 234.101469,553.881196 233.745479,553.959046 C233.400356,554.03452 233.054534,554.108734 232.708233,554.181635 C232.409435,554.244536 232.110223,554.306472 231.810657,554.367427 C231.424722,554.445955 231.038574,554.522782 230.651849,554.597976 C230.353859,554.655917 230.054907,554.713006 229.755613,554.769118 C229.369925,554.841426 228.984227,554.912012 228.597971,554.980973 C228.292788,555.035461 227.986796,555.089014 227.680457,555.141546 C227.322135,555.202991 226.963794,555.262965 226.604987,555.321541 C226.265567,555.376952 225.925211,555.431192 225.584442,555.484172 C225.205987,555.54301 224.827445,555.60023 224.448401,555.655892 C224.153212,555.699241 223.857492,555.741677 223.56147,555.783163 C223.188598,555.83542 222.815263,555.886167 222.441455,555.935402 C222.094322,555.981124 221.746528,556.025574 221.39833,556.068711 C221.038842,556.113246 220.679577,556.156307 220.319889,556.197969 C220.007238,556.234185 219.693707,556.269405 219.37986,556.303561 C218.984808,556.346554 218.589594,556.387827 218.193887,556.427409 C217.873365,556.459471 217.552192,556.490455 217.230698,556.520324 C216.882599,556.552664 216.534458,556.583668 216.185945,556.613362 C215.817225,556.644779 215.447708,556.67476 215.077781,556.703265 C214.753296,556.728269 214.428814,556.752115 214.104022,556.774825 C213.732418,556.800808 213.360166,556.825319 212.987512,556.848334 C212.655502,556.868839 212.323443,556.888142 211.99107,556.906255 C211.606106,556.927236 211.220274,556.946642 210.834026,556.964443 C210.492406,556.980185 210.150927,556.994654 209.809127,557.007865 C209.452669,557.021645 209.095341,557.034074 208.737669,557.045126 C208.152581,557.063203 207.567213,557.077585 206.980949,557.088271 L206.628667,557.094245 L206.628667,557.094245 C205.901879,557.105648 205.173825,557.11137 204.444444,557.11137 L202.283763,557.093586 L202.199867,557.093285 C201.516448,557.082268 200.833581,557.066208 200.151963,557.045149 C200.119013,557.044131 200.086405,557.043112 200.053799,557.042081 L199.739174,557.03178 C198.413697,556.986873 197.092978,556.923064 195.777278,556.840614 L195.585262,556.828446 L195.585262,556.828446 C194.954003,556.788003 194.323906,556.743267 193.694995,556.694269 L193.383655,556.669656 C192.744126,556.61837 192.105549,556.562648 191.468237,556.502544 L191.299463,556.486521 L191.299463,556.486521 C190.625867,556.422154 189.953906,556.352914 189.283396,556.278818 C189.2419,556.274232 189.200881,556.26968 189.159868,556.26511 C188.500833,556.191677 187.842796,556.113501 187.186199,556.03066 C187.132394,556.023871 187.078747,556.01707 187.02511,556.010238 C186.388191,555.929111 185.75248,555.843573 185.11816,555.753674 C185.026595,555.740697 184.934945,555.727613 184.843324,555.714437 C184.202799,555.622328 183.563893,555.525802 182.926442,555.424863 C182.86985,555.415902 182.813483,555.40694 182.757126,555.397943 C180.692537,555.068359 178.643073,554.692439 176.610007,554.271304 C176.580102,554.265109 176.549752,554.258812 176.519407,554.252504 C175.907094,554.125231 175.29672,553.993955 174.687862,553.858613 C174.582287,553.835145 174.476646,553.81153 174.371051,553.787792 C173.756034,553.649537 173.142632,553.507145 172.530817,553.360634 C172.479762,553.348408 172.428778,553.336167 172.377805,553.323898 C171.725105,553.166796 171.074182,553.004997 170.425106,552.838545 C170.401007,552.832365 170.376658,552.826113 170.352312,552.819856 C169.702919,552.652938 169.055609,552.481426 168.410185,552.305297 L168.317976,552.280099 L168.317976,552.280099 C166.993607,551.917693 165.676993,551.535784 164.368658,551.13475 L164.278854,551.107189 L164.278854,551.107189 C163.685394,550.92483 163.093853,550.738603 162.504046,550.548474 L162.202333,550.450825 L162.202333,550.450825 C161.596109,550.253836 160.992236,550.052894 160.390233,549.847866 L160.283465,549.811453 L160.283465,549.811453 C159.653189,549.59621 159.025201,549.37657 158.399304,549.152491 C158.374006,549.143434 158.348972,549.134463 158.323941,549.125485 C157.707825,548.9045 157.093464,548.67911 156.481169,548.44945 L156.367082,548.406599 C155.11505,547.935707 153.871465,547.44687 152.636842,546.940474 C152.563333,546.910324 152.489286,546.879877 152.415271,546.849366 C151.876737,546.627369 151.340288,546.402188 150.805574,546.173695 C150.704313,546.130425 150.602673,546.086846 150.501097,546.043148 C148.67505,545.257574 146.869731,544.433516 145.085754,543.571825 C145.021899,543.540983 144.957594,543.50986 144.893317,543.478689 C143.723982,542.911614 142.564205,542.328544 141.41391,541.729591 L141.133647,541.583248 L141.133647,541.583248 C140.620444,541.314514 140.109072,541.042581 139.599623,540.767506 L139.374034,540.645427 L139.374034,540.645427 C138.224439,540.021918 137.085011,539.382595 135.955705,538.72757 C135.89523,538.692493 135.83487,538.657422 135.774539,538.622305 C134.646406,537.965654 133.528353,537.293285 132.420731,536.605528 L132.269331,536.511382 L132.269331,536.511382 C131.721521,536.17024 131.176757,535.825643 130.634583,535.477321 C130.611795,535.462681 130.588772,535.44788 130.565754,535.433073 C130.03189,535.089639 129.500743,534.742726 128.972142,534.392237 L128.808318,534.283444 L128.808318,534.283444 C128.74257,534.239715 128.676993,534.196017 128.611456,534.152265 C93.8411315,510.939302 70.1742864,472.221007 67.3434349,427.79524 C99.8200176,480.456827 158.033357,515.555556 224.444444,515.555556 Z" id="path-14"></path>
        <linearGradient x1="50%" y1="0%" x2="50%" y2="100%" id="linearGradient-15">
            <stop stop-color="#EECC7E" offset="0%"></stop>
            <stop stop-color="#BE692A" offset="100%"></stop>
        </linearGradient>
    </defs>
    <g id="页面-1" stroke="none" stroke-width="1" fill="none" fill-rule="evenodd">
        <g id="token-logo-深色">
            <g id="bg">
                <mask id="mask-2" fill="white">
                    <use xlink:href="#path-1"></use>
                </mask>
                <use id="蒙版" fill="#0E0905" xlink:href="#path-1"></use>
                <path d="M738.645915,74.3889619 C855.69145,74.3889619 963.343676,114.6065 1048.53745,181.976438 C886.202444,217.85447 759.539979,151.749341 729.752232,316.286536 C700.816491,156.402564 580.398328,225.280659 424.667499,185.235524 C510.489445,115.909931 619.718809,74.3889619 738.645915,74.3889619 Z" id="形状" fill="#EBC779" opacity="0.632268418" filter="url(#filter-3)" mask="url(#mask-2)" transform="translate(736.602477, 195.337749) scale(1, -1) rotate(-225.000000) translate(-736.602477, -195.337749) "></path>
                <path d="M209.757026,674.388962 C326.802561,674.388962 434.454787,714.6065 519.648565,781.976438 C357.313555,817.85447 230.65109,751.749341 200.863344,916.286536 C171.927602,756.402564 51.5094392,825.280659 -104.22139,785.235524 C-18.3994441,715.909931 90.8299201,674.388962 209.757026,674.388962 Z" id="形状备份" fill="#C06C2D" opacity="0.632268418" filter="url(#filter-4)" mask="url(#mask-2)" transform="translate(207.713588, 795.337749) scale(1, -1) rotate(-401.000000) translate(-207.713588, -795.337749) "></path>
                <path d="M488.344376,767.901175 C605.389911,767.901175 713.042137,808.118714 798.235915,875.488652 C635.900906,911.366684 509.23844,845.261555 479.450694,1009.79875 C450.514952,849.914778 330.096789,918.792873 174.365961,878.747738 C260.187906,809.422145 369.41727,767.901175 488.344376,767.901175 Z" id="形状" fill="#EBC779" opacity="0.632268418" filter="url(#filter-5)" mask="url(#mask-2)" transform="translate(486.300938, 888.849962) scale(1, -1) rotate(-360.000000) translate(-486.300938, -888.849962) "></path>
                <path d="M466.016854,-31.5887403 C583.062389,-31.5887403 690.714615,8.62879801 775.908393,75.9987361 C613.573383,111.876768 486.910918,45.7716392 457.123171,210.308833 C428.18743,50.4248622 307.769267,119.302957 152.038438,79.2578221 C237.860384,9.93222899 347.089748,-31.5887403 466.016854,-31.5887403 Z" id="形状备份" fill="#C06C2D" opacity="0.632268418" filter="url(#filter-6)" mask="url(#mask-2)" transform="translate(463.973415, 89.360047) scale(1, -1) rotate(-180.000000) translate(-463.973415, -89.360047) "></path>
            </g>
            <g id="logo" transform="translate(295.555556, 186.666667)">
                <g id="蒙版">
                    <use fill="#FFFFFF" xlink:href="#path-8"></use>
                    <use fill="url(#linearGradient-7)" xlink:href="#path-8"></use>
                </g>
                <g id="形状结合">
                    <use fill="#FFFFFF" xlink:href="#path-11"></use>
                    <use fill="url(#linearGradient-9)" xlink:href="#path-11"></use>
                    <use fill="url(#linearGradient-10)" xlink:href="#path-11"></use>
                </g>
                <g id="形状结合">
                    <use fill="#FFFFFF" xlink:href="#path-14"></use>
                    <use fill="url(#linearGradient-12)" xlink:href="#path-14"></use>
                    <use fill="url(#linearGradient-13)" xlink:href="#path-14"></use>
                </g>
                <path d="M340.82815,435.614085 L340.813763,435.722586 L340.794634,435.875508 L340.802763,435.815586 L340.762738,436.148725 L340.705763,436.589586 L340.703673,436.617379 L340.687763,436.731586 L340.678763,436.800586 L340.667763,436.890586 L340.664763,436.911586 L340.661763,436.936586 L340.496993,438.165988 C340.445864,438.533352 340.39325,438.900603 340.339206,439.267384 C340.285842,439.629549 340.231133,439.990936 340.175037,440.351861 C340.125659,440.66957 340.075164,440.987179 340.023597,441.304425 C339.962247,441.681861 339.899404,442.05863 339.835053,442.434879 C339.780258,442.755249 339.72438,443.075176 339.667413,443.394721 C339.601916,443.762114 339.534931,444.12925 339.46651,444.495876 C339.410285,444.797149 339.353174,445.097634 339.2951,445.397773 C339.219107,445.790525 339.141383,446.18308 339.062012,446.575033 C338.998853,446.886919 338.934738,447.198015 338.869587,447.508726 C338.80239,447.829193 338.734056,448.149412 338.664624,448.469217 C338.586856,448.827413 338.507718,449.185049 338.427208,449.54216 C338.367445,449.807246 338.306984,450.071789 338.24577,450.336041 C338.148058,450.757849 338.048503,451.178605 337.947044,451.59861 C337.860595,451.956483 337.772675,452.314166 337.683375,452.671296 C337.607621,452.974255 337.530876,453.276805 337.453143,453.578954 C337.335374,454.03672 337.2154,454.493323 337.093171,454.948994 C337.037144,455.157862 336.980651,455.366508 336.923685,455.574957 C336.608569,456.728035 336.278947,457.875247 335.935075,459.016218 C335.83524,459.347469 335.734264,459.678 335.632094,460.008001 C335.475431,460.514003 335.316015,461.018582 335.153812,461.521896 C335.055134,461.828091 334.955393,462.133912 334.854624,462.43926 C334.744531,462.772861 334.633237,463.105816 334.520723,463.438201 C334.395525,463.808053 334.268808,464.177219 334.140586,464.545673 C334.043828,464.823715 333.946094,465.101685 333.847505,465.379245 C333.726085,465.721073 333.603566,466.061734 333.479758,466.401769 C333.367881,466.70904 333.254849,467.016073 333.140769,467.322591 C333.036155,467.603672 332.93066,467.884315 332.824286,468.164521 C332.677873,468.550198 332.529723,468.935229 332.379914,469.319422 C332.288918,469.552784 332.197482,469.785404 332.105439,470.017713 C331.950826,470.407946 331.794309,470.797768 331.636084,471.186704 C331.527043,471.454736 331.417376,471.721898 331.306904,471.988637 C331.16004,472.343246 331.01162,472.697418 330.86178,473.050835 C330.733007,473.354566 330.603172,473.657766 330.472294,473.960403 C330.337693,474.271648 330.202026,474.582211 330.06526,474.892173 C329.930484,475.197625 329.794664,475.502442 329.657783,475.806672 C329.508421,476.138643 329.357663,476.4702 329.205645,476.801051 L328.83237,477.606606 L328.83237,477.606606 C328.669627,477.95488 328.505242,478.302867 328.339458,478.650051 C328.209801,478.921576 328.079473,479.192232 327.948295,479.462395 C327.778622,479.81184 327.607457,480.160605 327.434877,480.508535 C327.309064,480.762182 327.182457,481.01547 327.055101,481.268311 C326.882001,481.611967 326.707538,481.954756 326.531699,482.296712 C326.392675,482.567076 326.252768,482.836962 326.112004,483.106323 C325.944071,483.427673 325.775004,483.748118 325.604724,484.06781 C325.454531,484.349792 325.303345,484.631282 325.151219,484.912182 C324.967677,485.251092 324.782654,485.589351 324.59627,485.926743 C324.465736,486.163034 324.334596,486.398789 324.202792,486.634116 C324.005283,486.986753 323.806325,487.338356 323.605884,487.68899 C323.463597,487.937896 323.320426,488.186549 323.176509,488.434711 C323.000439,488.738313 322.823422,489.040894 322.645297,489.342734 C322.48559,489.613363 322.324907,489.88354 322.163335,490.153118 C322.022847,490.387516 321.88188,490.621145 321.740246,490.854319 C321.524604,491.209331 321.30767,491.562877 321.089204,491.915362 C320.904626,492.213169 320.719132,492.509933 320.532553,492.805935 C320.363333,493.074398 320.193067,493.342472 320.021909,493.609914 C319.830346,493.90924 319.637859,494.207477 319.444265,494.504918 C319.263207,494.7831 319.080994,495.060865 318.897815,495.337928 C317.795101,497.005799 316.65755,498.647948 315.486053,500.263562 L315.054016,500.856085 L315.054016,500.856085 C314.794759,501.209679 314.533841,501.562024 314.271301,501.913069 C314.173549,502.043773 314.075928,502.173824 313.978085,502.303696 C313.684874,502.692889 313.389561,503.080604 313.092262,503.466692 C312.905541,503.709176 312.718348,503.95062 312.530377,504.19142 C312.294978,504.49298 312.058347,504.793546 311.820505,505.093094 C311.657728,505.298105 311.494205,505.502861 311.330116,505.707136 C311.069261,506.031878 310.806959,506.355426 310.543236,506.677752 C310.368793,506.890956 310.194,507.103298 310.01859,507.315104 C309.785569,507.596476 309.551272,507.877124 309.315891,508.156818 C309.102227,508.410705 308.887821,508.66363 308.672527,508.915764 C308.447651,509.17912 308.22187,509.441542 307.995126,509.703097 C307.777205,509.954476 307.558402,510.205046 307.338715,510.454811 C307.113912,510.710392 306.888373,510.964916 306.661916,511.218593 C306.444579,511.462056 306.225946,511.705236 306.006468,511.947627 C305.779531,512.198255 305.551948,512.44776 305.323469,512.696418 C305.111144,512.927496 304.897988,513.157904 304.684063,513.387577 C304.420549,513.670487 304.155965,513.952179 303.89022,514.232748 C303.698236,514.435443 303.505371,514.63784 303.311901,514.839646 C303.054551,515.108084 302.796431,515.375169 302.537252,515.641204 C302.318686,515.865554 302.099041,516.089486 301.878645,516.312666 C301.643374,516.550906 301.407604,516.787931 301.170985,517.024096 C300.923556,517.271052 300.675033,517.517229 300.425588,517.762458 C300.197232,517.986954 299.968094,518.210662 299.738187,518.433572 C299.496388,518.66801 299.25381,518.901498 299.010385,519.134096 C298.762625,519.370838 298.513853,519.606788 298.264209,519.841811 C298.023406,520.068512 297.781806,520.294337 297.539399,520.519295 C297.302276,520.739349 297.06459,520.958383 296.826138,521.176585 C296.569127,521.411771 296.310788,521.646386 296.051563,521.880024 C295.815867,522.092452 295.579987,522.303586 295.343381,522.513913 C295.08111,522.747055 294.817633,522.979481 294.553268,523.210906 C294.336658,523.400527 294.119442,523.589484 293.901634,523.777766 C293.607132,524.032345 293.311608,524.285636 293.01501,524.537686 C292.762807,524.752009 292.509712,524.96553 292.255844,525.178147 C292.015604,525.379351 291.774725,525.579701 291.533157,525.779239 C291.262592,526.00273 290.991135,526.225224 290.71882,526.446692 C290.456977,526.659643 290.194567,526.871464 289.93137,527.082334 C289.69167,527.27438 289.45091,527.465959 289.209499,527.656741 C288.935729,527.873097 288.661084,528.088458 288.385608,528.30279 C287.323215,529.129366 286.249011,529.94022 285.162786,530.735439 C285.12607,530.762319 285.089507,530.789058 285.052931,530.81578 C284.555494,531.179199 284.055222,531.53957 283.552463,531.896629 L283.008082,532.281269 C282.628223,532.548288 282.247114,532.813318 281.864616,533.076453 C281.680479,533.203127 281.496306,533.329167 281.311814,533.454767 C280.967607,533.6891 280.622171,533.921983 280.275631,534.153325 C280.032076,534.315918 279.787475,534.478081 279.54233,534.639477 C279.200699,534.864394 278.858393,535.087575 278.515043,535.30926 C278.299195,535.448624 278.082548,535.587643 277.865489,535.726066 C277.536291,535.936002 277.20639,536.144414 276.875551,536.351451 C276.60984,536.517731 276.343364,536.683222 276.076287,536.84782 C275.759615,537.042983 275.442053,537.236918 275.123651,537.429591 L274.380873,537.875864 C274.056654,538.06927 273.731133,538.261632 273.40476,538.452679 C273.130026,538.613498 272.854827,538.773305 272.579028,538.932177 C272.289823,539.098772 272.000016,539.264306 271.709556,539.428807 C271.404627,539.601503 271.09898,539.773059 270.792619,539.943472 C270.503314,540.104397 270.212938,540.26454 269.921928,540.423655 C269.631073,540.582683 269.340118,540.740398 269.048536,540.897085 C268.732727,541.066792 268.41601,541.235384 268.098562,541.402763 C267.853798,541.531819 267.608369,541.660274 267.362507,541.788004 C266.992747,541.980101 266.622098,542.170513 266.250481,542.359276 C266.000847,542.486077 265.750765,542.61214 265.500249,542.737456 C265.157531,542.908894 264.814074,543.078898 264.469813,543.247497 C264.208693,543.375379 263.94692,543.502544 263.684686,543.628897 C263.323417,543.802967 262.96126,543.975502 262.598239,544.146486 C262.349764,544.263518 262.100893,544.379819 261.851619,544.495391 C261.507705,544.65484 261.163186,544.812828 260.817908,544.969422 C260.532833,545.098714 260.246877,545.227217 259.960407,545.354763 C259.647837,545.493927 259.33511,545.631755 259.021776,545.768441 C258.711715,545.903702 258.400691,546.038003 258.089078,546.171179 C257.790014,546.298991 257.490626,546.425675 257.1907,546.55132 C256.863005,546.6886 256.534306,546.824787 256.204969,546.959725 C255.902372,547.083706 255.599805,547.206404 255.296707,547.328047 C254.972828,547.458032 254.647776,547.587034 254.322121,547.714822 C254.057089,547.818819 253.792089,547.921846 253.526694,548.024069 C253.150904,548.168813 252.773977,548.312073 252.396264,548.453708 C252.239836,548.512365 252.083562,548.570636 251.927154,548.628629 C251.464742,548.800083 251.000975,548.969172 250.536054,549.135811 C249.968958,549.339075 249.399501,549.538916 248.82835,549.735076 C248.530019,549.837536 248.231608,549.938864 247.932739,550.039186 C247.513847,550.179797 247.093716,550.318544 246.672697,550.455301 C246.448403,550.528157 246.224188,550.600342 245.999724,550.671962 C245.561108,550.811912 245.121368,550.949759 244.680686,551.085435 C244.455215,551.154854 244.229224,551.223786 244.002988,551.292147 C243.582211,551.419292 243.160849,551.544383 242.738651,551.66749 C242.443875,551.753443 242.14853,551.838474 241.85278,551.922533 C241.489793,552.025703 241.126178,552.127413 240.761961,552.227653 C240.49141,552.302113 240.220704,552.375713 239.949668,552.448501 C239.548224,552.55631 239.145923,552.662369 238.742908,552.766634 C238.447062,552.843174 238.150575,552.91881 237.853705,552.993475 C237.500042,553.082422 237.146117,553.169922 236.791655,553.256038 C236.432118,553.343387 236.071975,553.429326 235.711286,553.513834 C235.412158,553.58392 235.112379,553.653084 234.812227,553.72126 C234.456945,553.801957 234.101469,553.881196 233.745479,553.959046 C233.400356,554.03452 233.054534,554.108734 232.708233,554.181635 C232.409435,554.244536 232.110223,554.306472 231.810657,554.367427 C231.424722,554.445955 231.038574,554.522782 230.651849,554.597976 C230.353859,554.655917 230.054907,554.713006 229.755613,554.769118 C229.369925,554.841426 228.984227,554.912012 228.597971,554.980973 C228.292788,555.035461 227.986796,555.089014 227.680457,555.141546 C227.322135,555.202991 226.963794,555.262965 226.604987,555.321541 C226.265567,555.376952 225.925211,555.431192 225.584442,555.484172 C225.205987,555.54301 224.827445,555.60023 224.448401,555.655892 C224.153212,555.699241 223.857492,555.741677 223.56147,555.783163 C223.188598,555.83542 222.815263,555.886167 222.441455,555.935402 C222.094322,555.981124 221.746528,556.025574 221.39833,556.068711 C221.038842,556.113246 220.679577,556.156307 220.319889,556.197969 C220.007238,556.234185 219.693707,556.269405 219.37986,556.303561 C218.984808,556.346554 218.589594,556.387827 218.193887,556.427409 C217.873365,556.459471 217.552192,556.490455 217.230698,556.520324 C216.882599,556.552664 216.534458,556.583668 216.185945,556.613362 C215.817225,556.644779 215.447708,556.67476 215.077781,556.703265 C214.753296,556.728269 214.428814,556.752115 214.104022,556.774825 C213.732418,556.800808 213.360166,556.825319 212.987512,556.848334 C212.655502,556.868839 212.323443,556.888142 211.99107,556.906255 C211.606106,556.927236 211.220274,556.946642 210.834026,556.964443 C210.492406,556.980185 210.150927,556.994654 209.809127,557.007865 C209.452669,557.021645 209.095341,557.034074 208.737669,557.045126 C208.152581,557.063203 207.567213,557.077585 206.980949,557.088271 L206.628667,557.094245 L206.628667,557.094245 C205.901879,557.105648 205.173825,557.11137 204.444444,557.11137 L202.283763,557.093586 L202.199867,557.093285 C201.516448,557.082268 200.833581,557.066208 200.151963,557.045149 C200.119013,557.044131 200.086405,557.043112 200.053799,557.042081 L199.739174,557.03178 C198.413697,556.986873 197.092978,556.923064 195.777278,556.840614 C195.713308,556.836605 195.649279,556.832548 195.585262,556.828446 C194.954003,556.788003 194.323906,556.743267 193.694995,556.694269 L193.383655,556.669656 C192.744126,556.61837 192.105549,556.562648 191.468237,556.502544 C191.412099,556.497249 191.355776,556.491903 191.299463,556.486521 C190.625867,556.422154 189.953906,556.352914 189.283396,556.278818 C189.2419,556.274232 189.200881,556.26968 189.159868,556.26511 C188.500833,556.191677 187.842796,556.113501 187.186199,556.03066 C187.132394,556.023871 187.078747,556.01707 187.02511,556.010238 C186.388191,555.929111 185.75248,555.843573 185.11816,555.753674 C185.026595,555.740697 184.934945,555.727613 184.843324,555.714437 C184.202799,555.622328 183.563893,555.525802 182.926442,555.424863 C182.86985,555.415902 182.813483,555.40694 182.757126,555.397943 C180.692537,555.068359 178.643073,554.692439 176.610007,554.271304 C176.580102,554.265109 176.549752,554.258812 176.519407,554.252504 C175.907094,554.125231 175.29672,553.993955 174.687862,553.858613 C174.582287,553.835145 174.476646,553.81153 174.371051,553.787792 C173.756034,553.649537 173.142632,553.507145 172.530817,553.360634 C172.479762,553.348408 172.428778,553.336167 172.377805,553.323898 C171.725105,553.166796 171.074182,553.004997 170.425106,552.838545 C170.401007,552.832365 170.376658,552.826113 170.352312,552.819856 C169.702919,552.652938 169.055609,552.481426 168.410185,552.305297 C168.379299,552.296868 168.348635,552.288489 168.317976,552.280099 C166.993607,551.917693 165.676993,551.535784 164.368658,551.13475 L164.278854,551.107189 L164.278854,551.107189 C163.685394,550.92483 163.093853,550.738603 162.504046,550.548474 C162.403495,550.516061 162.302889,550.4835 162.202333,550.450825 C161.596109,550.253836 160.992236,550.052894 160.390233,549.847866 C160.354848,549.835814 160.319153,549.823641 160.283465,549.811453 C159.653189,549.59621 159.025201,549.37657 158.399304,549.152491 C158.374006,549.143434 158.348972,549.134463 158.323941,549.125485 C157.707825,548.9045 157.093464,548.67911 156.481169,548.44945 L156.367082,548.406599 C155.11505,547.935707 153.871465,547.44687 152.636842,546.940474 C152.563333,546.910324 152.489286,546.879877 152.415271,546.849366 C151.876737,546.627369 151.340288,546.402188 150.805574,546.173695 C150.704313,546.130425 150.602673,546.086846 150.501097,546.043148 C148.67505,545.257574 146.869731,544.433516 145.085754,543.571825 C145.021899,543.540983 144.957594,543.50986 144.893317,543.478689 C143.723982,542.911614 142.564205,542.328544 141.41391,541.729591 C141.320314,541.680856 141.226949,541.632104 141.133647,541.583248 C140.620444,541.314514 140.109072,541.042581 139.599623,540.767506 C139.524567,540.726981 139.449279,540.686238 139.374034,540.645427 C138.224439,540.021918 137.085011,539.382595 135.955705,538.72757 L135.774539,538.622305 L135.774539,538.622305 C134.646406,537.965654 133.528353,537.293285 132.420731,536.605528 C132.370644,536.574428 132.319977,536.542921 132.269331,536.511382 C131.721521,536.17024 131.176757,535.825643 130.634583,535.477321 L130.565754,535.433073 L130.565754,535.433073 C130.03189,535.089639 129.500743,534.742726 128.972142,534.392237 C128.917597,534.356071 128.862944,534.319777 128.808318,534.283444 C128.74257,534.239715 128.676993,534.196017 128.611456,534.152265 C118.906016,527.672831 110.065688,519.985322 102.302134,511.302822 C125.82398,522.575188 152.174668,528.888889 180,528.888889 C250.84825,528.888889 312.136351,487.957024 341.506359,428.451236 C341.339325,430.85478 341.113517,433.243676 340.82815,435.614085 Z" id="形状结合" fill="url(#linearGradient-15)" opacity="0.600000024"></path>
            </g>
        </g>
    </g>
</svg>