<?xml version="1.0" encoding="UTF-8"?>
<svg width="500px" height="617px" viewBox="0 0 500 617" version="1.1" xmlns="http://www.w3.org/2000/svg" xmlns:xlink="http://www.w3.org/1999/xlink">
    <title>enki-logo-2</title>
    <g id="页面-1" stroke="none" stroke-width="1" fill="none" fill-rule="evenodd">
        <g id="enki-logo-2" fill="#DBA45C">
            <path d="M251.139309,0 L357.402017,192.625782 C364.555557,208.001183 368.55509,225.180003 368.55509,243.305433 C368.55509,309.017914 315.986254,362.288405 251.139309,362.288405 C186.292364,362.288405 133.723528,309.017914 133.723528,243.305433 C133.723528,224.631394 137.968836,206.962135 145.534803,191.234644 L251.139309,0 Z M251.132264,31.9300807 L159.195708,198.414075 L158.937339,198.959796 C152.641639,212.380064 149.263428,227.067132 149.116394,242.268208 L149.11138,243.305433 C149.11138,300.426327 194.796637,346.721362 251.139309,346.721362 C307.481982,346.721362 353.167239,300.426327 353.167239,243.305433 C353.167239,228.193514 349.976794,213.569811 343.898197,200.167122 L343.686428,199.707623 L251.132264,31.9300807 Z M252.178966,122.611453 L252.239371,123.289103 C253.519738,140.303855 243.045671,159.26916 228.477291,167.045174 C226.487012,170.815734 224.591321,174.648547 222.738646,178.555346 C222.473026,179.109777 222.213236,179.69049 221.947553,180.244617 C230.347436,171.160244 243.644178,165.673489 255.120952,167.352861 L255.585213,167.424879 L255.63751,167.413622 L255.360766,167.915055 C248.596821,180.778436 232.392926,189.597142 218.396334,188.273192 C215.424303,195.293369 212.658763,202.517569 210.131308,209.966846 C219.226242,200.393798 234.215214,195.297354 246.344168,198.241946 L246.776114,198.350535 L246.828112,198.339343 L246.519839,198.820025 C238.68968,210.890855 221.964468,218.136608 208.232462,215.733973 C205.751092,223.532267 203.502277,231.529291 201.51778,239.745428 C210.115415,229.458207 225.098547,223.437318 237.566239,225.839374 L238.000124,225.92659 L238.052421,225.915333 L237.749742,226.422666 C230.48886,238.867901 214.09225,246.899432 200.247402,245.128809 C199.601293,247.965433 198.9842,250.828932 198.397553,253.717046 C199.300534,253.760304 200.20801,253.780975 201.120251,253.780975 C213.410089,253.780975 224.835208,250.029255 234.341134,243.594364 L234.363294,243.575829 C236.089856,242.409368 237.751328,241.152269 239.343245,239.813199 C251.129465,231.658233 265.379389,226.890859 280.728126,226.890859 C299.298869,226.890859 316.261053,233.869847 329.1999,245.380816 C329.448688,245.642722 329.697179,245.904948 329.944396,246.168412 C329.850406,248.076416 329.690424,249.966803 329.466716,251.837279 L329.456335,251.917453 L329.455335,251.923453 L329.428335,252.152945 L329.394506,252.422962 L329.386528,252.474 L329.393335,252.422453 L329.363335,252.657453 L329.359335,252.691453 L329.359792,252.692697 L329.273627,253.333493 C329.246111,253.532115 329.21789,253.730402 329.188951,253.928452 L329.090594,254.582869 L329.090594,254.582869 C329.06628,254.740256 329.041503,254.897547 329.016275,255.054685 C328.974558,255.314517 328.931664,255.573586 328.887544,255.832229 L328.810237,256.277877 C328.772363,256.492629 328.73366,256.706989 328.694116,256.921049 C328.657052,257.121682 328.619278,257.321894 328.58077,257.521839 C328.529572,257.787669 328.477059,258.053111 328.423251,258.318073 C328.401028,258.427507 328.378609,258.53674 328.35597,258.645891 C328.301683,258.907633 328.246103,259.169037 328.189266,259.429963 C328.155175,259.586466 328.120668,259.742633 328.085711,259.898626 L327.983447,260.348907 C327.843568,260.956711 327.696893,261.561677 327.543468,262.163893 L327.511289,262.289774 C327.118762,263.820137 326.68263,265.332678 326.204317,266.825952 C326.188154,266.876412 326.17173,266.927513 326.155256,266.97859 C326.05155,267.300129 325.946099,267.620145 325.838712,267.939252 C325.81702,268.003708 325.795489,268.067422 325.77388,268.1311 C325.66319,268.457299 325.550337,268.782933 325.435472,269.107596 C325.415727,269.163404 325.395945,269.21912 325.376104,269.274808 C325.270734,269.570543 325.16378,269.865228 325.055169,270.159093 C324.984414,270.350538 324.912778,270.5421 324.840439,270.73331 C324.777398,270.899943 324.713817,271.06632 324.649705,271.232427 C324.574341,271.427677 324.498523,271.621841 324.421978,271.815632 C324.348339,272.002072 324.273726,272.188909 324.198439,272.375395 C324.133335,272.536649 324.068103,272.696724 324.002374,272.856538 C323.910753,273.079311 323.817877,273.302257 323.724036,273.524684 C323.661473,273.672972 323.598596,273.820759 323.535293,273.968314 C323.456808,274.151262 323.37752,274.334189 323.297577,274.516757 C323.20736,274.722786 323.11652,274.927885 323.024854,275.132523 L322.807209,275.614132 L322.807209,275.614132 C322.726073,275.792103 322.64445,275.96942 322.562205,276.146382 C322.477929,276.327715 322.392982,276.508714 322.307385,276.689337 C322.228435,276.855935 322.148773,277.022544 322.068558,277.188829 C321.967885,277.39752 321.866598,277.605181 321.76445,277.812329 L321.665593,278.012102 L321.566049,278.211863 C321.461997,278.419941 321.357177,278.627292 321.251493,278.834115 L321.00941,279.304038 L320.729358,279.838359 C320.643038,280.001553 320.556308,280.164162 320.469039,280.326431 C320.363171,280.523284 320.256448,280.719749 320.148937,280.915708 L319.90706,281.353328 L319.90706,281.353328 C319.801584,281.542767 319.695269,281.731899 319.588217,281.920546 C319.50882,282.060459 319.428972,282.200185 319.348719,282.339642 C319.223724,282.556848 319.097988,282.772993 318.97128,282.988484 C318.898872,283.111628 318.826212,283.234446 318.753238,283.35705 C318.624303,283.573673 318.494258,283.789832 318.363232,284.005313 L318.139136,284.371641 L318.139136,284.371641 C318.026937,284.553954 317.913925,284.735949 317.800211,284.917448 C317.700301,285.076913 317.600041,285.235695 317.499243,285.394093 L317.284565,285.729603 C317.148097,285.941719 317.010923,286.152739 316.872793,286.363058 C316.236608,287.331734 315.579899,288.285865 314.903498,289.224497 C314.803745,289.362925 314.703297,289.50138 314.60242,289.639495 C314.482416,289.803797 314.361909,289.967477 314.240801,290.130671 C314.072875,290.356951 313.903906,290.582147 313.73379,290.806403 C313.676916,290.881378 313.619988,290.956149 313.562933,291.030815 C313.418708,291.219559 313.273508,291.407836 313.127497,291.595434 C313.024378,291.727922 312.921157,291.859687 312.817536,291.991113 C312.705673,292.132995 312.592992,292.274921 312.479844,292.416448 C312.35364,292.574305 312.227095,292.731367 312.099975,292.887931 C311.967345,293.051282 311.833961,293.214244 311.699953,293.376658 C311.590865,293.508871 311.481379,293.640702 311.37148,293.772169 C311.249677,293.917877 311.127457,294.063033 311.004734,294.207739 C310.871088,294.365325 310.736762,294.522476 310.601843,294.67909 L310.215988,295.123675 L310.215988,295.123675 C310.10204,295.253998 309.987437,295.384212 309.872422,295.514044 C309.72766,295.67745 309.582568,295.83989 309.436829,296.001721 C309.32453,296.12642 309.211583,296.251046 309.098252,296.375307 C308.950558,296.537245 308.802442,296.698313 308.653681,296.858757 C308.546341,296.974528 308.438474,297.090177 308.330271,297.205499 C308.180327,297.365309 308.029947,297.52427 307.878928,297.682601 C307.7602,297.807077 307.641157,297.931081 307.521721,298.054693 C307.369198,298.212549 307.215946,298.369859 307.062056,298.526526 C306.92597,298.66507 306.789351,298.803144 306.652237,298.940713 L306.331859,299.260338 L306.331859,299.260338 C306.15266,299.438105 305.972687,299.614958 305.791888,299.790945 L305.4764,300.096353 L305.4764,300.096353 C305.308759,300.257748 305.140268,300.418547 304.971081,300.578601 C304.853207,300.690111 304.735067,300.801193 304.616592,300.911912 C304.481803,301.037876 304.346571,301.163379 304.210907,301.28841 C304.05891,301.428493 303.906303,301.568045 303.753158,301.706999 C303.594551,301.850908 303.435554,301.994009 303.275984,302.136466 L302.944355,302.430876 L302.944355,302.430876 C302.745489,302.606439 302.545426,302.781285 302.344491,302.955127 L302.054385,303.204899 L301.536466,303.644828 C301.401215,303.758721 301.265875,303.871922 301.130157,303.984673 C300.960785,304.125383 300.790707,304.26549 300.620045,304.404891 L300.268155,304.690653 L300.268155,304.690653 C299.952505,304.945492 299.635213,305.197672 299.315981,305.447428 C298.896086,305.775944 298.472355,306.100626 298.04532,306.421044 C297.86719,306.554699 297.688726,306.687435 297.509693,306.819426 C297.484144,306.838262 297.458518,306.857131 297.432881,306.875984 C297.145324,307.087452 296.856091,307.297153 296.565411,307.504914 L296.256204,307.724798 C296.043734,307.875125 295.830453,308.024451 295.616415,308.172737 L295.262108,308.416776 L295.262108,308.416776 C295.072191,308.546825 294.881818,308.675969 294.690862,308.804293 C294.552138,308.897518 294.412676,308.990596 294.272905,309.083237 C294.075155,309.214307 293.877017,309.344353 293.678271,309.473519 C293.562824,309.54855 293.447033,309.623372 293.331038,309.697896 C293.126984,309.828996 292.922247,309.959203 292.716881,310.088481 L292.277019,310.363356 C292.10536,310.469844 291.933144,310.575761 291.760497,310.681028 C291.603701,310.776629 291.446786,310.871552 291.289519,310.965938 C291.09911,311.080216 290.907973,311.19383 290.716324,311.306651 C290.590632,311.380644 290.464697,311.454308 290.338544,311.527629 C290.131623,311.647893 289.924191,311.767189 289.716175,311.885558 C289.582829,311.961437 289.44919,312.036965 289.315312,312.11211 C289.097977,312.2341 288.880007,312.355083 288.661416,312.475051 L288.3093,312.667129 L288.3093,312.667129 C288.111391,312.774433 287.912723,312.881041 287.713555,312.986813 C287.550018,313.073661 287.38634,313.159842 287.222328,313.245458 C287.033973,313.343782 286.84507,313.441414 286.655731,313.538295 C286.495974,313.620039 286.335944,313.70123 286.175604,313.781885 C286.005127,313.867639 285.834157,313.952858 285.66284,314.037467 C285.496738,314.119499 285.330577,314.200828 285.164093,314.281583 C284.934686,314.39286 284.704441,314.503153 284.473589,314.612347 C284.363625,314.66436 284.253545,314.716114 284.143328,314.767617 C283.939595,314.86282 283.735387,314.957172 283.530715,315.050665 C283.349951,315.133237 283.168803,315.215148 282.987296,315.296387 L282.560879,315.485711 C282.353046,315.577243 282.144846,315.667852 281.936186,315.757577 C281.777692,315.825732 281.618515,315.893552 281.459074,315.960858 C281.262686,316.043758 281.06641,316.125666 280.869739,316.206793 L280.363909,316.41337 C280.165039,316.493773 279.966181,316.573217 279.766929,316.651864 C279.629564,316.706084 279.491755,316.760026 279.35376,316.813586 C279.135143,316.898437 278.916207,316.982274 278.69681,317.065151 L278.226659,317.241015 C277.081515,317.665151 275.92401,318.063148 274.754797,318.434313 L274.277204,318.584229 L274.277204,318.584229 C274.082205,318.644747 273.887134,318.704445 273.691745,318.763397 C273.510805,318.817989 273.329827,318.871872 273.148581,318.925114 C272.941127,318.986056 272.73266,319.046347 272.523843,319.105789 C272.355601,319.15368 272.18749,319.20092 272.019155,319.24761 C271.829027,319.300344 271.638486,319.352409 271.44766,319.403769 C271.244539,319.458437 271.041049,319.512318 270.837241,319.565394 C270.686969,319.604527 270.536731,319.643171 270.386321,319.681378 C270.154381,319.740294 269.92187,319.798211 269.688956,319.85508 C269.503,319.900484 269.316887,319.945197 269.13052,319.98924 C268.946219,320.032796 268.761811,320.075664 268.577157,320.117876 C268.351752,320.169405 268.125456,320.220072 267.898798,320.269752 C267.74852,320.30269 267.598453,320.335115 267.44823,320.367108 C267.227334,320.41415 267.006031,320.460271 266.784392,320.50545 C266.585444,320.546004 266.386104,320.585823 266.186496,320.62488 L265.71665,320.715312 C265.462708,320.763377 265.208306,320.810215 264.953482,320.855814 C264.822438,320.879264 264.691112,320.902416 264.559675,320.925238 C264.30436,320.969568 264.049014,321.012592 263.793256,321.05437 L263.320571,321.130091 L263.320571,321.130091 C263.103526,321.164174 262.886274,321.197349 262.668735,321.229624 C262.456788,321.261069 262.244732,321.291637 262.032406,321.321349 C261.876147,321.343215 261.719508,321.364649 261.562725,321.385617 C261.329667,321.416785 261.096563,321.446887 260.863144,321.475956 L260.318463,321.541845 C260.097846,321.567746 259.877112,321.592707 259.656105,321.616743 L259.396721,321.644515 L259.137215,321.671425 C258.910322,321.694571 258.682906,321.716764 258.455209,321.737978 C258.294746,321.752928 258.13421,321.767385 257.973537,321.781354 C257.718958,321.803486 257.464162,321.824384 257.209027,321.844052 C257.06358,321.855266 256.917654,321.866106 256.771618,321.876543 L256.052164,321.924645 L255.360174,321.964663 C255.187923,321.973864 255.015118,321.982525 254.842167,321.990621 C254.628318,322.000631 254.414788,322.009757 254.20104,322.018021 C253.992689,322.026078 253.783538,322.033335 253.574181,322.039766 C253.379992,322.045729 253.186251,322.050966 252.992338,322.055495 C252.789654,322.060229 252.586473,322.064193 252.383104,322.067378 L251.761793,322.074674 L251.139309,322.077111 L250.171335,322.069453 L249.777907,322.065449 C249.421475,322.059339 249.065476,322.050829 248.710068,322.039938 L248.401437,322.029877 C248.106667,322.019693 247.811947,322.007853 247.517647,321.99438 L247.288055,321.983534 C246.9063,321.96494 246.525596,321.943618 246.145621,321.919571 C246.112742,321.91749 246.07971,321.915379 246.046684,321.913247 C245.704042,321.891128 245.362099,321.866801 245.020764,321.840273 C244.952098,321.834936 244.883814,321.829539 244.815555,321.824054 C244.45577,321.795144 244.096235,321.763748 243.737397,321.729917 C243.658256,321.722456 243.578898,321.714852 243.499574,321.707129 C242.733273,321.632521 241.970201,321.54681 241.21049,321.450153 L241.142941,321.441529 C240.779323,321.394942 240.416955,321.345915 240.055374,321.294405 L239.712592,321.244794 L239.712592,321.244794 C239.418006,321.201488 239.124325,321.156593 238.83118,321.110063 L238.702338,321.089501 C238.322393,321.028538 237.943479,320.96485 237.565488,320.898437 L237.45958,320.879753 C237.144201,320.82389 236.829523,320.76614 236.515501,320.706505 C236.427163,320.68973 236.338597,320.672751 236.250083,320.655622 C235.94448,320.596481 235.64007,320.53567 235.336294,320.47309 L234.959773,320.394551 C234.685694,320.33667 234.412472,320.277422 234.139778,320.216745 C234.0106,320.188001 233.88192,320.159023 233.753358,320.129727 C233.454691,320.061669 233.156245,319.991794 232.858453,319.920209 C232.799054,319.90593 232.739408,319.891518 232.679788,319.877036 C232.323969,319.790607 231.96946,319.701831 231.615904,319.610636 C231.577598,319.600756 231.539219,319.590825 231.50085,319.580865 C231.199667,319.502686 230.899221,319.422762 230.59948,319.341093 C230.503639,319.314981 230.407678,319.288636 230.31179,319.262113 C229.989116,319.172858 229.667724,319.081713 229.347167,318.988564 L229.131076,318.925431 C228.80841,318.830651 228.486675,318.733865 228.165806,318.635063 L228.073797,318.606668 C227.723947,318.498467 227.374876,318.387787 227.026856,318.274725 L226.848471,318.216533 C226.165177,317.992723 225.485608,317.759599 224.810262,317.517421 L224.580325,317.434557 C224.262827,317.319574 223.94614,317.202539 223.630409,317.083515 L223.37326,316.986054 C223.120791,316.889857 222.868797,316.792331 222.617428,316.693537 L222.344669,316.585742 L222.344669,316.585742 C222.049198,316.468325 221.754954,316.349302 221.461589,316.228541 C221.339936,316.178465 221.218164,316.127977 221.096545,316.07719 C220.870409,315.982757 220.645076,315.887408 220.420276,315.791032 L220.18382,315.689197 C219.887525,315.561009 219.592321,315.431108 219.29806,315.299438 L218.989591,315.160606 C218.342543,314.867694 217.70067,314.566488 217.063534,314.256869 L216.922224,314.188023 L216.922224,314.188023 C216.271851,313.870356 215.626127,313.543753 214.985515,313.208519 L214.814222,313.118611 C214.503782,312.95518 214.194158,312.789507 213.885762,312.621817 L213.701654,312.52139 L213.701654,312.52139 C213.46787,312.393457 213.235066,312.264515 213.002976,312.134422 C212.885277,312.068449 212.767344,312.001943 212.649596,311.93514 C212.36675,311.774667 212.085203,311.612612 211.804743,311.448859 L211.695507,311.384961 L211.695507,311.384961 C211.430619,311.229729 211.166535,311.072879 210.903438,310.914523 L210.5342,310.690901 C210.305789,310.551711 210.077859,310.411213 209.850691,310.269581 C209.78616,310.229348 209.721884,310.189144 209.657669,310.14885 C209.371376,309.969205 209.086314,309.787763 208.802486,309.604533 C208.71237,309.546358 208.622207,309.48789 208.532168,309.429242 C208.319382,309.290638 208.107478,309.151148 207.89628,309.010658 C207.827764,308.965082 207.759235,308.919341 207.69078,308.873495 C207.655913,308.850144 207.621057,308.82676 207.58622,308.803348 C187.361356,295.211086 173.678138,272.424148 172.343324,246.327084 C179.376109,250.240098 187.267288,252.762979 195.657723,253.531881 C196.269381,250.498914 196.914875,247.496092 197.582317,244.514868 C185.499512,236.861357 177.634248,219.502095 179.759484,204.808849 L179.826949,204.364428 L179.930446,203.817356 L179.956445,203.81176 C190.824075,209.979707 198.562078,223.975017 199.250229,237.388609 C201.146403,229.660885 203.27513,222.131892 205.610649,214.806857 C194.184812,206.796484 187.38211,189.755956 190.131954,175.583653 L190.221001,175.141716 L190.356028,174.615395 L190.382027,174.609799 C200.75941,180.910807 207.739652,194.544429 208.035288,207.518031 C210.437361,200.51007 213.071625,193.7006 215.880915,187.074705 C206.588211,176.478786 204.089012,158.068193 210.281901,144.91159 L210.486927,144.48445 L210.742902,144.015024 C218.524129,151.979826 222.029727,165.173762 220.350325,177.053178 C222.12642,173.300866 223.94553,169.622541 225.859292,166.006771 C225.295372,148.654736 236.558214,129.70507 251.667901,122.827222 L252.126939,122.622512 L252.178966,122.611453 Z" id="蒙版"></path>
            <path d="M87.3475564,615.498625 C89.9698422,615.498625 91.9925464,614.821374 93.4156692,613.466872 C94.8387919,612.11237 95.5503533,610.123048 95.5503533,607.498905 C95.5503533,604.92916 94.8387919,602.96758 93.4156692,601.614166 C91.9925464,600.260753 89.9698422,599.584046 87.3475564,599.584046 L87.3475564,599.584046 L18.7473864,599.584046 L18.7473864,548.716795 L82.9248953,548.716795 C85.6319814,548.716795 87.6758857,548.040089 89.0566083,546.686675 C90.4373309,545.333261 91.1276922,543.343395 91.1276922,540.717076 C91.1276922,538.14733 90.4373309,536.185751 89.0566083,534.832337 C87.6758857,533.478923 85.6319814,532.802216 82.9248953,532.802216 L82.9248953,532.802216 L18.7473864,532.802216 L18.7473864,484.147863 L87.3475564,484.147863 C89.9698422,484.147863 91.9925464,483.450485 93.4156692,482.055729 C94.8387919,480.660973 95.5503533,478.650436 95.5503533,476.024117 C95.5503533,473.537056 94.8387919,471.616818 93.4156692,470.263405 C91.9925464,468.909991 89.9698422,468.233284 87.3475564,468.233284 L87.3475564,468.233284 L10.518497,468.233284 C7.12213686,468.233284 4.51996398,469.137917 2.71197839,470.947183 C0.903992795,472.756449 0,475.360465 0,478.759231 L0,478.759231 L0,604.972678 C0,608.371443 0.903992795,610.975459 2.71197839,612.784725 C4.51996398,614.593992 7.12213686,615.498625 10.518497,615.498625 L10.518497,615.498625 L87.3475564,615.498625 Z M257.541147,617 C259.969914,617 261.887162,616.17098 263.29289,614.512939 C264.698617,612.854898 265.401481,610.561493 265.401481,607.632723 L265.401481,607.632723 L265.401481,476.138352 C265.401481,473.126897 264.643171,470.806293 263.126551,469.176539 C261.60993,467.546786 259.403492,466.731909 256.507236,466.731909 C253.61098,466.731909 251.369752,467.546786 249.783552,469.176539 C248.197351,470.806293 247.404251,473.126897 247.404251,476.138352 L247.404251,476.138352 L247.401574,583.081972 L164.074924,472.492621 C162.654338,470.626177 161.390521,469.245416 160.283473,468.35034 L159.875679,468.037452 C158.674342,467.16709 156.872336,466.731909 154.469661,466.731909 C151.960442,466.731909 149.926322,467.5816 148.367302,469.280983 C146.808281,470.980366 146.028771,473.417381 146.028771,476.592028 L146.028771,476.592028 L146.028771,607.46953 C146.028771,610.507096 146.822414,612.854898 148.409702,614.512939 C149.996989,616.17098 152.237674,617 155.131755,617 C158.028011,617 160.234993,616.17098 161.752701,614.512939 C163.270408,612.854898 164.029262,610.507096 164.029262,607.46953 L164.029262,607.46953 L164.026584,500.258273 L247.440128,611.115261 C248.84042,612.90304 250.172874,614.268507 251.437489,615.21166 L251.975313,615.590013 C253.398436,616.530004 255.253714,617 257.541147,617 Z M424.755007,617 C427.62517,617 429.812583,616.26128 431.317244,614.783839 C432.821906,613.306399 433.504657,611.43512 433.365497,609.170001 C433.226338,606.904883 432.00978,604.721361 429.715823,602.619435 L429.715823,602.619435 L362.941964,539.600836 L426.451012,479.859152 C428.097732,478.261553 429.116088,476.577992 429.506078,474.80847 L429.622869,474.14087 C429.88488,472.12598 429.360315,470.387431 428.049172,468.925222 C426.738029,467.463013 424.606063,466.731909 421.653273,466.731909 C419.552835,466.731909 417.617649,467.160562 415.847715,468.017869 C414.077781,468.875176 412.250226,470.190512 410.36505,471.963875 L410.36505,471.963875 L344.299104,534.773588 L343.881626,534.773588 L343.881626,476.631194 C343.881626,473.373863 343.047213,470.909649 341.378387,469.238553 C339.709561,467.567457 337.317214,466.731909 334.201347,466.731909 C331.083306,466.731909 328.689872,467.567457 327.021046,469.238553 C325.35222,470.909649 324.517807,473.373863 324.517807,476.631194 L324.517807,476.631194 L324.517807,606.976687 C324.517807,610.096937 325.35222,612.547552 327.021046,614.328531 C328.689872,616.10951 331.083306,617 334.201347,617 C337.456374,617 339.88351,616.10951 341.482756,614.328531 C343.082003,612.547552 343.881626,610.096937 343.881626,606.976687 L343.881626,606.976687 L343.881626,546.373344 L344.299104,546.373344 L413.316753,610.991235 C415.334565,612.951726 417.138745,614.44331 418.729294,615.465986 C420.319843,616.488662 422.328414,617 424.755007,617 Z M490.319721,617 C493.574748,617 496.001884,616.10951 497.60113,614.328531 C499.200377,612.547552 500,610.096937 500,606.976687 L500,606.976687 L500,476.755221 C500,473.495713 499.165587,471.010284 497.496761,469.298934 C495.827935,467.587584 493.435588,466.731909 490.319721,466.731909 C487.20168,466.731909 484.808246,467.587584 483.13942,469.298934 C481.470594,471.010284 480.636181,473.495713 480.636181,476.755221 L480.636181,476.755221 L480.636181,606.976687 C480.636181,610.096937 481.470594,612.547552 483.13942,614.328531 C484.808246,616.10951 487.20168,617 490.319721,617 Z" id="ENKI" fill-rule="nonzero"></path>
        </g>
    </g>
</svg>