<?xml version="1.0" encoding="UTF-8"?>
<svg width="1471px" height="500px" viewBox="0 0 1471 500" version="1.1" xmlns="http://www.w3.org/2000/svg" xmlns:xlink="http://www.w3.org/1999/xlink">
    <title>enki-logo-1</title>
    <g id="页面-1" stroke="none" stroke-width="1" fill="none" fill-rule="evenodd">
        <g id="enki-logo-1" fill="#DBA45C">
            <path d="M162.216804,0 L309.024981,265.841121 C318.908018,287.060574 324.433607,310.768911 324.433607,335.783655 C324.433607,426.472863 251.806671,499.990991 162.216804,499.990991 C72.6269369,499.990991 0,426.472863 0,335.783655 C0,310.011781 5.86514177,285.626594 16.3179702,263.921224 L162.216804,0 Z M162.207071,44.0664191 L35.1913134,273.829492 L34.834362,274.582638 C26.1364814,293.103829 21.4692848,313.373321 21.2661491,334.352191 L21.2592215,335.783655 C21.2592215,414.615691 84.3760899,478.507055 162.216804,478.507055 C240.057518,478.507055 303.174386,414.615691 303.174386,335.783655 C303.174386,314.927831 298.7666,294.745788 290.36866,276.248857 L290.076088,275.614706 L162.207071,44.0664191 Z M163.653151,169.214971 L163.736604,170.15019 C165.505507,193.632097 151.034967,219.805944 130.907893,230.537553 C128.158206,235.741269 125.539197,241.0309 122.979618,246.422638 C122.612649,247.187803 122.253733,247.98924 121.886676,248.753986 C133.524624,236.181057 151.966419,228.601458 167.852943,230.98221 L168.359081,231.061579 L168.431332,231.046044 L168.048995,231.738068 C158.704207,249.490705 136.317573,261.661323 116.980458,259.834151 C112.874422,269.522635 109.053667,279.492689 105.56184,289.773369 C118.149463,276.538099 138.909154,269.503034 155.681765,273.613816 L156.188793,273.741802 L156.260631,273.726355 L155.834734,274.389741 C145.016909,291.048586 121.910046,301.048385 102.938472,297.732529 C99.5103133,308.494885 96.4034427,319.531506 93.6617445,330.870524 C105.557837,316.651761 126.302562,308.338739 143.542898,311.694016 L144.064247,311.799269 L144.136498,311.783733 L143.718329,312.483898 C133.686994,329.659456 111.034114,340.743701 91.9066426,338.300079 C91.0138786,342.21543 90.1612139,346.167881 89.3506561,350.154462 C90.5984762,350.212329 91.852214,350.240857 93.1125341,350.240857 C110.092796,350.240857 125.878238,345.062454 139.011754,336.180637 L139.042107,336.154887 C141.427645,334.545166 143.723319,332.809918 145.922867,330.961517 C162.206314,319.708418 181.891986,313.130048 203.095494,313.130048 C228.749735,313.130048 252.18206,322.759936 270.057223,338.64354 C270.402868,339.006222 270.747463,339.369462 271.090286,339.734424 C270.960465,342.367623 270.739474,344.976511 270.430442,347.557919 L270.418525,347.653971 L270.412525,347.697971 L270.394525,347.845971 L270.389525,347.885971 L270.366525,348.066971 L270.371525,348.029971 L270.365506,348.089545 L270.349525,348.206971 L270.36,348.112 L270.344525,348.241971 L270.311525,348.505971 L270.307525,348.539971 L270.296736,348.630792 C270.250435,348.988215 270.202445,349.345098 270.152773,349.701435 L270.050884,350.415482 C270.008162,350.708119 269.964237,351.000821 269.919178,351.293144 C269.873503,351.589463 269.826721,351.885036 269.778782,352.180214 C269.739098,352.424562 269.698617,352.668664 269.657346,352.912493 C269.609077,353.197662 269.559714,353.482538 269.509273,353.767035 C269.458283,354.054632 269.406199,354.341804 269.353019,354.628584 C269.303488,354.895694 269.252983,355.162583 269.20153,355.429127 C269.145651,355.718598 269.088713,356.007368 269.030664,356.29573 C268.981011,356.542389 268.930518,356.788881 268.879213,357.03507 C268.825115,357.294668 268.770076,357.554113 268.714138,357.813218 C268.652545,358.098507 268.589965,358.382925 268.526303,358.666928 C268.478772,358.878971 268.430553,359.091149 268.381731,359.303094 C268.306066,359.631554 268.22914,359.958671 268.150778,360.285219 C268.057223,360.675092 267.961476,361.064738 267.86369,361.453559 L267.76172,361.855821 C267.664646,362.235776 267.565667,362.61477 267.464753,362.992959 L267.328498,363.498775 L267.328498,363.498775 C267.25771,363.7591 267.186112,364.018651 267.113602,364.277815 C266.872258,365.140425 266.620812,365.998732 266.359401,366.852602 C266.219225,367.31046 266.076477,367.766124 265.930896,368.220497 C265.859985,368.441818 265.788383,368.662892 265.71611,368.883657 C265.616967,369.186501 265.516611,369.48862 265.415002,369.790152 L265.205881,370.404754 L265.205881,370.404754 C265.098183,370.718248 264.989198,371.030901 264.878865,371.342905 C264.791561,371.589785 264.703332,371.836485 264.61426,372.082774 C264.522575,372.336288 264.429899,372.589635 264.336333,372.842541 C264.235129,373.116087 264.13316,373.388386 264.030159,373.660167 C263.946371,373.881259 263.861635,374.102694 263.776216,374.323783 C263.66857,374.602391 263.560198,374.879535 263.450753,375.156126 C263.352099,375.40545 263.252324,375.654939 263.151675,375.903973 C263.05414,376.145301 262.955957,376.385782 262.856961,376.625833 C262.745777,376.895441 262.633484,377.164702 262.520168,377.433415 C262.42792,377.652169 262.334965,377.870628 262.241334,378.08872 C262.118471,378.374902 261.994576,378.660154 261.869526,378.944771 C261.774277,379.161562 261.678205,379.378325 261.581464,379.594716 C261.45842,379.869942 261.334315,380.144519 261.209132,380.418488 C261.111488,380.632185 261.013188,380.845517 260.914235,381.058476 C260.783688,381.339426 260.652145,381.619434 260.519474,381.89879 L260.191047,382.58424 L260.191047,382.58424 C260.077319,382.819514 259.962996,383.053896 259.847878,383.287806 C259.726949,383.533525 259.604928,383.779148 259.48203,384.024244 C259.353144,384.281276 259.223649,384.537034 259.093198,384.79221 C258.978801,385.015989 258.86334,385.239954 258.747144,385.463466 C258.611633,385.72413 258.475269,385.983899 258.337914,386.243048 C258.229348,386.447878 258.120108,386.652423 258.010249,386.856577 C257.859477,387.136764 257.707537,387.41622 257.55444,387.694935 C257.448195,387.888353 257.341532,388.081162 257.234316,388.273613 C257.078128,388.553969 256.920569,388.833908 256.761838,389.113077 C256.648736,389.311996 256.535088,389.510438 256.420849,389.708488 C256.282093,389.949041 256.142464,390.189012 256.001967,390.428399 C255.867782,390.657031 255.732838,390.885074 255.597106,391.11258 L255.285212,391.632118 C255.114062,391.915447 254.941869,392.197637 254.768458,392.478979 C254.577826,392.788262 254.385705,393.096548 254.192124,393.403799 C254.108241,393.536936 254.024261,393.669599 253.940009,393.802068 C253.82551,393.982096 253.710262,394.162147 253.594511,394.341835 C253.403904,394.637724 253.212235,394.932171 253.019214,395.225628 C251.862159,396.984737 250.656765,398.70802 249.40477,400.393816 C249.174797,400.703471 248.943227,401.011896 248.710096,401.319043 C248.623391,401.433275 248.536497,401.547296 248.449387,401.66114 C248.229464,401.94856 248.008132,402.234899 247.785439,402.520097 L247.465013,402.928482 C247.29855,403.13962 247.130977,403.350576 246.962656,403.560893 C246.784791,403.783132 246.606789,404.003796 246.427963,404.223747 L245.935555,404.825069 C245.763446,405.033744 245.590877,405.241423 245.417569,405.448446 C245.255593,405.641931 245.092959,405.834858 244.929681,406.027209 C244.737564,406.253534 244.544579,406.479035 244.350709,406.703733 C244.195732,406.883354 244.040086,407.06258 243.883877,407.241289 C243.700957,407.450556 243.517288,407.659088 243.33285,407.866909 C243.160593,408.061004 242.987656,408.254489 242.814053,408.447348 C242.615847,408.667537 242.416901,408.886772 242.217093,409.105187 L241.782589,409.577391 C241.568297,409.808926 241.352715,410.039861 241.136161,410.269851 C240.97458,410.441455 240.81284,410.612132 240.650565,410.782283 C240.442815,411.000116 240.234105,411.217172 240.024523,411.433358 C239.873061,411.589592 239.721016,411.745503 239.568517,411.900956 C239.357748,412.115808 239.146111,412.329786 238.933613,412.542886 C238.740906,412.736136 238.547899,412.92826 238.354189,413.11966 C238.200224,413.27179 238.045715,413.42356 237.890765,413.574871 C237.661669,413.798585 237.431533,414.021365 237.200438,414.24313 L236.726744,414.695008 L236.726744,414.695008 C236.51606,414.894798 236.304429,415.093904 236.092016,415.292165 C235.864481,415.504541 235.636403,415.715625 235.407437,415.925738 C235.273426,416.048716 235.138741,416.171698 235.003752,416.294344 C234.711564,416.559816 234.41784,416.823812 234.122704,417.08622 C234.008022,417.188185 233.893064,417.289965 233.777893,417.391505 C233.525569,417.613965 233.27218,417.835306 233.017777,418.055483 C232.853532,418.197632 232.689084,418.339106 232.524218,418.480094 C232.30763,418.665312 232.090094,418.849881 231.871838,419.033604 C231.685699,419.190291 231.499248,419.346186 231.312278,419.501465 C231.148177,419.637751 230.983257,419.773906 230.817937,419.909582 C230.563042,420.118767 230.30748,420.326584 230.050977,420.533255 C229.20535,421.214606 228.348848,421.883989 227.482372,422.540623 C226.879907,422.997183 226.27274,423.447491 225.660844,423.891546 C225.460802,424.036717 225.260431,424.181092 225.059559,424.324797 L224.920166,424.424355 L224.463561,424.748173 C224.199825,424.934198 223.935238,425.119072 223.669808,425.30279 L223.229259,425.606123 L223.229259,425.606123 C222.925795,425.813976 222.620756,426.020648 222.314634,426.225798 C222.180619,426.315609 222.04658,426.405006 221.912335,426.494111 C221.609423,426.695169 221.305461,426.894742 221.00046,427.092818 C220.806133,427.219021 220.611109,427.344792 220.415665,427.469951 C220.176333,427.623215 219.936481,427.775493 219.696003,427.926849 C219.494701,428.053548 219.292897,428.179642 219.090658,428.305086 C218.817971,428.474227 218.544758,428.642026 218.270762,428.808641 C218.070488,428.930428 217.869356,429.051845 217.667807,429.172623 C217.445166,429.30604 217.222371,429.438468 216.999072,429.570116 C216.752784,429.715319 216.505539,429.859771 216.257684,430.003267 C216.013763,430.144484 215.769703,430.284517 215.52506,430.423622 C215.329173,430.535005 215.132517,430.646014 214.935488,430.756423 C214.670708,430.904798 214.405322,431.052052 214.139267,431.198218 C213.932325,431.311908 213.725276,431.424778 213.517827,431.536988 C213.248385,431.682732 212.977988,431.827512 212.70692,431.971171 C212.505006,432.078181 212.302676,432.184591 212.099975,432.290377 C211.825117,432.43382 211.549838,432.575983 211.273885,432.716992 C211.069707,432.821328 210.864658,432.925284 210.659241,433.028604 C210.374861,433.17164 210.090298,433.313198 209.805038,433.453535 C209.621839,433.543662 209.438001,433.633457 209.253877,433.722743 C208.972814,433.859037 208.691311,433.994039 208.409148,434.127854 C208.175142,434.238831 207.940649,434.349006 207.705706,434.45836 C207.451573,434.576647 207.196768,434.69404 206.94144,434.810466 C206.732785,434.90561 206.523891,435.000059 206.31465,435.093862 C206.030509,435.221242 205.745643,435.347467 205.460144,435.472492 C205.234224,435.571426 205.007959,435.669587 204.7813,435.766994 C204.517379,435.880414 204.252993,435.992783 203.988079,436.104124 L203.323735,436.380733 C203.004457,436.512415 202.684849,436.642439 202.364495,436.770971 C202.186899,436.842226 202.008941,436.913075 201.830755,436.983462 C201.413431,437.148316 200.994779,437.310671 200.574894,437.47048 C200.498847,437.499423 200.422644,437.528327 200.346401,437.557146 C199.370283,437.926114 198.3877,438.28127 197.398724,438.62244 C196.5827,438.903942 195.762708,439.175801 194.938495,439.438017 C194.672418,439.522665 194.406447,439.606139 194.140043,439.688608 C193.967076,439.742154 193.793303,439.795465 193.619348,439.848348 C193.282556,439.950732 192.94538,440.051424 192.607527,440.150506 C192.349856,440.226072 192.092143,440.300601 191.834043,440.374192 C191.574943,440.44807 191.315029,440.521119 191.054727,440.593216 C190.810311,440.660911 190.56589,440.727677 190.32113,440.793602 C190.021972,440.874178 189.722342,440.953491 189.422211,441.031542 C189.193387,441.09105 188.963889,441.149923 188.734102,441.208057 C188.452139,441.279391 188.169969,441.349557 187.88737,441.418609 C187.615638,441.485005 187.343437,441.550388 187.070844,441.614736 C186.807493,441.676901 186.543981,441.738053 186.280107,441.798236 C186.006299,441.860686 185.731732,441.922174 185.456777,441.982612 C185.198436,442.039397 184.940052,442.095192 184.681331,442.150058 L183.893721,442.314 L183.893721,442.314 C183.60371,442.373233 183.313024,442.431352 183.021925,442.488298 C182.780237,442.535578 182.538306,442.582042 182.296093,442.627695 C181.987294,442.685898 181.678269,442.742742 181.368793,442.798263 C181.142127,442.838929 180.915133,442.8789 180.687898,442.91816 C180.364915,442.973962 180.041274,443.028355 179.717154,443.081301 C179.495838,443.117453 179.274473,443.152904 179.052888,443.187679 C178.743414,443.236247 178.433407,443.283512 178.122976,443.329454 C177.861469,443.368154 177.599761,443.405901 177.337754,443.442705 C177.057879,443.482019 176.777571,443.52027 176.496927,443.55744 C176.22604,443.593319 175.954626,443.628218 175.682903,443.662104 C175.417216,443.695236 175.151637,443.727354 174.885766,443.758503 C174.588776,443.793299 174.291292,443.8269 173.993449,443.859287 C173.703818,443.890782 173.413667,443.921146 173.123182,443.950356 L172.426613,444.018125 C172.034904,444.054957 171.642239,444.08972 171.248982,444.122371 C171.087415,444.135785 170.925928,444.148829 170.764342,444.161515 C170.420021,444.188549 170.075194,444.213968 169.729926,444.237759 C169.481896,444.254849 169.234012,444.271076 168.985903,444.286463 C168.698108,444.304313 168.409309,444.32107 168.120211,444.336688 C167.855231,444.351 167.590708,444.364322 167.325938,444.376688 C166.972187,444.393211 166.617295,444.408054 166.26197,444.421175 C166.053847,444.42886 165.845988,444.435941 165.637982,444.442432 C164.502037,444.477884 163.361481,444.495744 162.216804,444.495744 C161.070573,444.495744 159.928475,444.477836 158.790766,444.44228 C158.763625,444.441432 158.736319,444.440569 158.709014,444.439695 C157.587142,444.403792 156.469789,444.350745 155.356957,444.280797 L155.228493,444.272646 L155.228493,444.272646 C154.696532,444.238579 154.165117,444.200611 153.634767,444.158802 C153.596587,444.155792 153.558284,444.152752 153.519987,444.149692 C153.023868,444.110049 152.528914,444.067066 152.034916,444.020747 C151.937635,444.011625 151.840671,444.002401 151.743743,443.993048 C151.221232,443.942632 150.699393,443.888438 150.178659,443.830531 C150.162826,443.82877 150.14717,443.827026 150.131515,443.825278 C149.624966,443.768724 149.119335,443.70864 148.614775,443.645066 L148.352734,443.611723 C147.872522,443.550023 147.393037,443.485125 146.914549,443.417082 L146.655082,443.379862 C146.186842,443.312112 145.719834,443.241394 145.253804,443.167686 C145.159669,443.152798 145.065695,443.137806 144.97176,443.122694 C144.481626,443.043841 143.992181,442.961611 143.503849,442.876093 C143.453925,442.86735 143.403941,442.85856 143.35397,442.849736 C142.880407,442.766111 142.408109,442.679433 141.936881,442.589686 C141.816775,442.566811 141.697121,442.543811 141.577536,442.520612 C141.116176,442.431115 140.655529,442.338607 140.195937,442.243171 C140.143588,442.232301 140.09095,442.221329 140.038326,442.210319 C139.537739,442.105585 139.038708,441.997444 138.540955,441.885858 L138.368934,441.847146 C137.895354,441.740161 137.422878,441.630043 136.951587,441.516828 C136.870093,441.497251 136.788438,441.477534 136.706818,441.457724 C136.236849,441.343657 135.768317,441.226573 135.30099,441.106433 L135.091133,441.052257 C134.613153,440.928346 134.136628,440.80129 133.661392,440.671061 L133.48934,440.62376 C133.002537,440.48949 132.51708,440.351887 132.033005,440.210981 L131.917302,440.177231 C131.453351,440.041614 130.990988,439.903059 130.529917,439.761494 C130.418937,439.72742 130.307867,439.69312 130.196872,439.658645 C129.749287,439.519624 129.303255,439.377872 128.858468,439.233306 C128.799529,439.21415 128.740451,439.194892 128.681395,439.175584 C128.209467,439.021289 127.739004,438.863846 127.269972,438.703259 L127.159345,438.665315 L127.159345,438.665315 C126.691358,438.504519 126.224212,438.340381 125.758523,438.17313 L125.515557,438.08554 C125.064026,437.922146 124.613822,437.755805 124.165018,437.586557 C124.102011,437.562796 124.038911,437.538933 123.975839,437.515012 C123.529182,437.345611 123.083998,437.173362 122.640227,436.998254 C122.566439,436.969138 122.493369,436.940211 122.420337,436.911208 C121.463503,436.531221 120.512774,436.137724 119.56887,435.73114 C119.521817,435.710872 119.475087,435.690704 119.428375,435.670503 C118.458468,435.251087 117.495436,434.81768 116.53988,434.370681 L116.51848,434.360667 C116.493376,434.348917 116.468278,434.337158 116.443184,434.325389 C113.037525,432.728124 109.727517,430.958429 106.523621,429.027168 L106.332508,428.9117 C105.484578,428.398207 104.643786,427.873171 103.810672,427.337003 C103.712229,427.273647 103.613987,427.210197 103.515853,427.146593 C103.130921,426.897105 102.747498,426.64514 102.365748,426.390813 C102.315368,426.357249 102.264765,426.323476 102.214192,426.289661 L102.046395,426.177242 C74.1042513,407.418881 55.1997064,375.970596 53.3555252,339.953938 C63.0708914,345.353848 73.9728328,348.8357 85.5646541,349.896989 C86.4108311,345.711042 87.3025902,341.567011 88.224671,337.452786 C71.531565,326.890243 60.6652401,302.93288 63.6013794,282.654863 L63.6945863,282.041521 L63.8375734,281.286513 L63.8734927,281.27879 C78.8877613,289.791118 89.5782686,309.10592 90.5289896,327.617898 C93.1486643,316.952936 96.0896267,306.56224 99.3162826,296.453025 C83.5258843,285.394526 74.1266112,261.8658 77.935121,242.303096 L78.0545802,241.711518 L78.241127,240.985147 L78.2770463,240.977424 C92.614011,249.673389 102.257626,268.489028 102.666065,286.393781 C105.984669,276.722156 109.62406,267.324468 113.505259,258.18013 C100.657074,243.54567 97.2088038,218.10983 105.789443,199.949758 L106.053147,199.401698 L106.406793,198.753848 C117.157015,209.746001 122.000205,227.954833 119.680013,244.349509 C122.133791,239.170977 124.646999,234.094553 127.290974,229.104462 C126.511885,205.157073 142.072163,179.004809 162.947087,169.512768 L163.581276,169.230249 L163.653151,169.214971 Z" id="蒙版"></path>
            <text id="ENKI" font-family="Nunito-Medium, Nunito" font-size="360.36036" font-weight="400" letter-spacing="40.9500406">
                <tspan x="504.6745" y="373.004423">ENKI</tspan>
            </text>
        </g>
    </g>
</svg>