<?xml version="1.0" encoding="UTF-8"?>
<svg width="1000px" height="1000px" viewBox="0 0 1000 1000" version="1.1" xmlns="http://www.w3.org/2000/svg" xmlns:xlink="http://www.w3.org/1999/xlink">
    <title>logo_emetis备份 2</title>
    <g id="APP" stroke="none" stroke-width="1" fill="none" fill-rule="evenodd">
        <g id="画板" transform="translate(-356.000000, -526.000000)" fill-rule="nonzero">
            <g id="logo_emetis备份-2" transform="translate(356.000000, 526.000000)">
                <path d="M1000,499.999036 C1000,401.108589 970.678992,304.438828 915.735427,222.214681 C860.797301,139.989989 782.705864,75.9038972 691.343559,38.060361 C599.981255,0.216640982 499.445736,-9.68500124 402.455278,9.60756116 C305.464821,28.9000692 216.373249,76.5201201 146.446658,146.44646 C76.520611,216.372257 28.9002262,305.463509 9.60759465,402.454163 C-9.68503693,499.444272 0.216645145,599.977256 38.0604965,691.339232 C75.904386,782.701209 139.990708,860.792367 222.21515,915.730295 C304.440136,970.673663 401.1097,1000 500.000502,1000 C565.661923,1000 630.683732,987.077266 691.348998,961.949731 C752.019703,936.827635 807.137312,899.995672 853.56903,853.56956 C900.000747,807.138009 936.832842,752.015159 961.955028,691.35011 C987.082653,630.685061 1000.01087,565.663485 1000,499.999036 Z" id="路径" fill="#0094DA"></path>
                <path d="M828.343505,475.007473 C817.748567,466.995487 806.734835,459.563285 795.334943,452.742954 C790.423634,449.634101 785.854975,446.01454 781.699671,441.94464 C773.182385,433.539969 758.992347,418.790324 754.3693,409.717217 C751.367038,404.151087 752.590786,393.520291 754.929504,383.556842 C758.921642,366.092662 755.881308,347.757719 746.466607,332.516401 L731.661976,308.359702 C724.830743,297.369941 719.35923,285.595896 715.350775,273.293738 C710.221911,257.496568 701.318465,243.18747 689.412757,231.603785 C665.31308,208.059502 598.578024,196.537821 543.193366,194.645097 C539.769591,193.646522 536.295235,192.829062 532.784982,192.195978 C508.071255,187.965633 481.799834,181.063719 458.14397,185.628011 C423.133356,192.140502 387.677298,203.105788 361.238359,230.156504 C355.672209,235.722634 347.545979,238.227229 341.812855,243.403937 C330.402629,253.700787 315.095446,253.700787 304.965532,265.111516 C299.009415,271.790437 296.28236,293.498016 280.75327,301.791735 C255.037702,315.595562 236.224073,330.735174 229.823599,338.471953 C225.092317,344.316009 221.474375,351.10697 216.910067,357.062522 C212.345759,363.018074 190.081704,373.760911 183.513712,379.938912 C178.602404,385.387563 175.037218,391.911476 173.10424,398.987433 C171.170718,406.063391 170.923249,413.493962 172.381413,420.682503 C172.771381,422.408254 173.049307,423.799514 173.272302,424.912849 C175.832382,434.374834 182.734321,451.462646 181.120061,459.310921 C179.283352,468.606478 155.349561,537.848066 208.95081,556.324962 C213.840907,557.798893 218.132183,560.795705 221.196992,564.885728 C224.261257,568.970312 225.938607,573.930553 225.982662,579.037643 C227.076965,588.283706 229.730594,597.279581 233.830966,605.644548 C237.392888,612.426807 242.646302,618.181121 249.082129,622.341849 C255.948171,628.884798 262.434035,635.813907 268.507632,643.10198 C287.432215,678.111924 282.144536,695.592421 318.602436,707.503525 C327.908359,710.576482 336.84879,714.666505 345.263825,719.692012 C355.503604,725.865118 366.481439,730.727459 377.936808,734.164819 L379.384094,734.665194 C387.454848,715.237585 395.581078,696.756337 403.763329,679.390056 C382.654492,658.793092 367.593146,632.806217 360.213674,604.2522 C352.834746,575.698183 353.419969,545.664796 361.906253,517.420794 C362.084105,516.816536 362.411525,516.266667 362.859145,515.8234 C363.306221,515.380133 363.858267,515.057065 364.464159,514.885197 C365.07005,514.712785 365.709118,514.696468 366.323168,514.838423 C366.936673,514.979833 367.504492,515.274619 367.973324,515.695043 C381.665704,527.717644 423.30033,571.020763 418.402074,649.280525 C432.817825,620.503515 446.788676,595.180181 459.590712,573.582466 C444.131239,548.302643 435.844562,519.289042 435.618849,489.656499 C435.393679,460.023956 443.237632,430.889069 458.310943,405.375919 C458.65468,404.847805 459.1246,404.41324 459.678822,404.113015 C460.2325,403.812246 460.853076,403.655063 461.483442,403.655063 C462.113808,403.655063 462.73384,403.812246 463.288062,404.113015 C463.842284,404.41324 464.312203,404.847805 464.655941,405.375919 C474.285477,419.625189 500.334449,466.602258 484.192941,533.673196 C495.937658,515.75052 505.455154,502.503631 511.633722,494.209913 C528.332171,382.88895 612.490679,346.431181 634.588848,338.694402 C635.181686,338.475216 635.818035,338.40995 636.438067,338.503498 C637.063538,338.597591 637.650937,338.848322 638.151314,339.231762 C638.651691,339.615201 639.048729,340.119928 639.298918,340.697535 C639.554545,341.275142 639.657884,341.907137 639.598056,342.535326 C636.138928,376.413987 623.803549,408.780645 603.837421,436.368721 C583.871293,463.956796 556.981471,485.790013 525.883043,499.66509 C514.138326,515.082628 502.895073,531.335574 492.096721,548.036139 C529.334012,518.867531 581.597841,505.175199 625.016419,515.695043 C625.625574,515.838085 626.196656,516.13124 626.6644,516.5484 C627.137582,516.965561 627.496548,517.494218 627.714104,518.085422 C627.92622,518.676627 627.991486,519.311885 627.899025,519.934635 C627.806564,520.557384 627.561815,521.146957 627.186532,521.650595 C614.715181,538.348985 565.069085,594.010826 471.335429,581.093532 C455.583345,607.760265 441.056097,634.753329 428.254061,660.522649 C468.607831,630.02152 527.608256,618.279021 573.363377,633.692751 C573.972531,633.883111 574.527297,634.225759 574.967846,634.682624 C575.413835,635.144927 575.734728,635.705129 575.897895,636.325159 C576.0665,636.939751 576.071939,637.592414 575.91965,638.212444 C575.767362,638.832474 575.462784,639.403554 575.033113,639.871296 C560.837636,655.181688 506.123049,705.387809 416.11992,685.459824 C407.659199,703.326481 395.080157,732.603866 388.95761,747.076674 C386.84243,752.085864 384.894223,757.095054 383.391461,762.213022 C379.43957,774.015349 374.040394,788.765538 367.639377,803.515728 C366.75012,805.615128 366.301412,807.877694 366.319904,810.156576 C366.338397,812.440898 366.824632,814.692586 367.74761,816.781108 C368.670588,818.864192 370.011816,820.740599 371.687535,822.290674 C373.363254,823.83531 375.338655,825.026421 377.491364,825.782422 C448.481256,851.149267 525.568676,854.010108 598.240813,833.962468 C600.644798,833.277172 602.858422,832.058867 604.729397,830.400015 C606.594933,828.746601 608.068869,826.690712 609.042429,824.390074 C610.54356,820.82762 612.044691,817.428333 612.044691,817.428333 C612.044691,817.428333 643.437905,744.51497 648.055514,712.735709 C649.38804,702.722767 652.499079,693.036157 657.241782,684.121865 C659.700156,679.661999 663.257184,675.903747 667.570215,673.195194 C671.883247,670.486642 676.816311,668.925689 681.901664,668.648307 C705.778347,667.370175 756.708018,664.030714 775.243721,658.183939 C799.898163,650.335664 789.216203,605.475943 787.878239,600.689746 C786.540274,595.903549 799.734997,584.601597 802.459876,578.036893 C805.190193,571.466749 795.780931,569.242255 791.941082,562.003132 C788.101233,554.769448 801.459122,549.646041 803.351852,543.080249 C805.244582,536.512281 799.011626,529.387374 796.504302,524.545157 C794.791055,521.027846 793.610818,517.276664 792.996225,513.412897 C792.996225,513.412897 811.03155,500.221485 820.826973,491.872291 C830.627834,483.523096 828.620888,476.677203 828.566499,475.174446" id="路径" fill="#000000"></path>
            </g>
        </g>
    </g>
</svg>